<?xml version="1.0" encoding="utf-8"?>
<!-- Generator: Adobe Illustrator 25.2.1, SVG Export Plug-In . SVG Version: 6.00 Build 0)  -->
<svg version="1.1" id="SvgjsSvg1001" xmlns:svgjs="http://svgjs.com/svgjs"
	 xmlns="http://www.w3.org/2000/svg" xmlns:xlink="http://www.w3.org/1999/xlink" x="0px" y="0px" viewBox="0 0 320 100"
	 style="enable-background:new 0 0 320 100;" xml:space="preserve">
<style type="text/css">
	.st0{fill:#0A0075;}
	.st1{fill:#D74FE1;}
</style>
<g id="SvgjsG1021" transform="matrix(1,0,0,1,191.00161361694336,114.01899719238281)">
	<path id="SvgjsPath1022" class="st0" d="M-59.6-81.2c1.4,0.5,2.4,1.2,3.2,2.2c0.8,1,1.2,2.2,1.2,3.7c0,2.1-0.8,3.7-2.5,4.8
		s-4.1,1.7-7.3,1.7h-12.9v-23.8h12.2c3,0,5.3,0.6,6.9,1.7c1.6,1.1,2.4,2.6,2.4,4.5c0,1.1-0.3,2.1-0.8,3
		C-57.8-82.4-58.6-81.7-59.6-81.2z M-66.6-87.7h-4.6v4.6h4.6c2.3,0,3.4-0.8,3.4-2.3C-63.2-86.9-64.4-87.7-66.6-87.7z M-65.6-73.6
		c2.4,0,3.5-0.8,3.5-2.4c0-1.6-1.2-2.4-3.5-2.4h-5.6v4.8H-65.6z M-45.9-85c0.7-0.8,1.5-1.5,2.6-1.9c1.1-0.4,2.3-0.6,3.6-0.6v5.8
		c-0.6-0.1-1.1-0.1-1.5-0.1c-1.4,0-2.5,0.4-3.2,1.1s-1.2,1.9-1.2,3.4v8.5h-6.5v-18.4h6.2V-85z M-28-68.5c-2,0-3.8-0.4-5.3-1.2
		c-1.6-0.8-2.8-1.9-3.7-3.4s-1.3-3.1-1.3-4.9c0-1.8,0.4-3.4,1.3-4.9c0.9-1.5,2.1-2.6,3.7-3.4c1.6-0.8,3.4-1.2,5.4-1.2
		s3.8,0.4,5.4,1.2c1.6,0.8,2.8,1.9,3.7,3.4c0.9,1.4,1.3,3.1,1.3,4.9s-0.4,3.5-1.3,4.9c-0.9,1.5-2.1,2.6-3.7,3.4
		C-24.2-68.9-26-68.5-28-68.5z M-28-73.6c1.1,0,2.1-0.4,2.8-1.2s1.1-1.9,1.1-3.2c0-1.4-0.4-2.4-1.1-3.2s-1.7-1.2-2.8-1.2
		c-1.1,0-2.1,0.4-2.8,1.2s-1.1,1.8-1.1,3.2c0,1.4,0.4,2.5,1.1,3.2S-29.1-73.6-28-73.6z M-1.6-87.2h6.5v18.4h-6.2v-1.8
		c-1.2,1.4-3,2.1-5.4,2.1c-1.7,0-3.2-0.4-4.6-1.2c-1.4-0.8-2.5-1.9-3.3-3.3c-0.8-1.5-1.2-3.1-1.2-5c0-1.9,0.4-3.6,1.2-5
		c0.8-1.4,1.9-2.5,3.3-3.3c1.4-0.8,2.9-1.2,4.6-1.2c2.2,0,3.9,0.6,5.1,1.9V-87.2z M-5.4-73.6c1.1,0,2.1-0.4,2.8-1.2
		c0.7-0.8,1.1-1.9,1.1-3.2c0-1.4-0.4-2.4-1.1-3.2c-0.7-0.8-1.7-1.2-2.8-1.2s-2.1,0.4-2.8,1.2c-0.7,0.8-1.1,1.8-1.1,3.2
		c0,1.4,0.4,2.5,1.1,3.2C-7.4-74-6.5-73.6-5.4-73.6z M22.1-94h6.5v25.2h-6.2v-1.8c-1.2,1.4-3,2.1-5.4,2.1c-1.7,0-3.2-0.4-4.6-1.2
		c-1.4-0.8-2.5-1.9-3.3-3.3C8.4-74.4,8-76.1,8-78s0.4-3.6,1.2-5s1.9-2.5,3.3-3.3c1.4-0.8,2.9-1.2,4.6-1.2c2.2,0,3.9,0.6,5.1,1.9V-94
		z M18.4-73.6c1.1,0,2-0.4,2.8-1.2c0.7-0.8,1.1-1.9,1.1-3.2c0-1.4-0.4-2.4-1.1-3.2c-0.7-0.8-1.6-1.2-2.8-1.2s-2.1,0.4-2.8,1.2
		c-0.7,0.8-1.1,1.8-1.1,3.2c0,1.4,0.4,2.5,1.1,3.2C16.3-74,17.3-73.6,18.4-73.6z M44.3-87.5c1.7,0,3.2,0.4,4.6,1.2
		c1.4,0.8,2.5,1.9,3.3,3.3c0.8,1.4,1.2,3.1,1.2,5s-0.4,3.6-1.2,5c-0.8,1.5-1.9,2.6-3.3,3.3c-1.4,0.8-2.9,1.2-4.6,1.2
		c-2.4,0-4.2-0.7-5.4-2.1v1.8h-6.2V-94h6.5v8.4C40.5-86.9,42.2-87.5,44.3-87.5z M43-73.6c1.1,0,2.1-0.4,2.8-1.2s1.1-1.9,1.1-3.2
		c0-1.4-0.4-2.4-1.1-3.2s-1.7-1.2-2.8-1.2s-2.1,0.4-2.8,1.2s-1.1,1.8-1.1,3.2c0,1.4,0.4,2.5,1.1,3.2S41.8-73.6,43-73.6z M69.4-87.2
		h6.5v18.4h-6.2v-1.8c-1.2,1.4-3,2.1-5.4,2.1c-1.7,0-3.2-0.4-4.6-1.2c-1.4-0.8-2.5-1.9-3.3-3.3c-0.8-1.5-1.2-3.1-1.2-5
		s0.4-3.6,1.2-5c0.8-1.4,1.9-2.5,3.3-3.3c1.4-0.8,2.9-1.2,4.6-1.2c2.2,0,3.9,0.6,5.1,1.9V-87.2z M65.6-73.6c1.1,0,2.1-0.4,2.8-1.2
		s1.1-1.9,1.1-3.2c0-1.4-0.4-2.4-1.1-3.2s-1.7-1.2-2.8-1.2s-2.1,0.4-2.8,1.2c-0.7,0.8-1.1,1.8-1.1,3.2c0,1.4,0.4,2.5,1.1,3.2
		C63.6-74,64.5-73.6,65.6-73.6z M92-87.5c2.3,0,4.1,0.7,5.5,2c1.4,1.4,2.1,3.4,2.1,6.2v10.5h-6.5v-9.5c0-2.5-1-3.8-3-3.8
		c-1.1,0-2,0.4-2.7,1.1c-0.7,0.7-1,1.8-1,3.3v8.9H80v-18.4h6.2v2c0.7-0.7,1.6-1.3,2.6-1.7S90.8-87.5,92-87.5z M117.1-94h6.5v25.2
		h-6.2v-1.8c-1.2,1.4-3,2.1-5.4,2.1c-1.7,0-3.2-0.4-4.6-1.2c-1.4-0.8-2.5-1.9-3.3-3.3c-0.8-1.5-1.2-3.1-1.2-5s0.4-3.6,1.2-5
		c0.8-1.4,1.9-2.5,3.3-3.3c1.4-0.8,2.9-1.2,4.6-1.2c2.2,0,3.9,0.6,5.1,1.9V-94z M113.3-73.6c1.1,0,2-0.4,2.8-1.2s1.1-1.9,1.1-3.2
		c0-1.4-0.4-2.4-1.1-3.2s-1.6-1.2-2.8-1.2s-2.1,0.4-2.8,1.2c-0.7,0.8-1.1,1.8-1.1,3.2c0,1.4,0.4,2.5,1.1,3.2
		C111.3-74,112.2-73.6,113.3-73.6z"/>
	<path id="SvgjsPath1023" class="st0" d="M-62-58.1h6.7v23.8H-62v-9.3h-9.2v9.3h-6.7v-23.8h6.7v8.9h9.2V-58.1z M-41-39
		c0.9,0,1.6-0.1,2.3-0.4c0.6-0.2,1.3-0.7,2-1.2l3.4,3.5c-1.7,2-4.4,3-7.8,3c-2.2,0-4-0.4-5.7-1.2c-1.6-0.8-2.9-1.9-3.8-3.4
		c-0.9-1.5-1.3-3.1-1.3-4.9c0-1.8,0.4-3.4,1.3-4.9s2.1-2.6,3.7-3.4c1.6-0.8,3.3-1.2,5.2-1.2c1.8,0,3.4,0.4,4.9,1.1s2.7,1.8,3.6,3.2
		c0.9,1.4,1.3,3.1,1.3,5l-13.2,2.5C-44.4-39.7-43.1-39-41-39z M-41.8-48.5c-1.1,0-2,0.3-2.7,1c-0.7,0.7-1.1,1.7-1.2,3l7.5-1.5
		c-0.2-0.8-0.7-1.4-1.3-1.9S-40.9-48.5-41.8-48.5z M-22.8-50.6c0.7-0.8,1.5-1.5,2.6-1.9c1.1-0.4,2.3-0.6,3.6-0.6v5.8
		c-0.6-0.1-1.1-0.1-1.5-0.1c-1.4,0-2.5,0.4-3.2,1.1c-0.8,0.7-1.2,1.9-1.2,3.4v8.5H-29v-18.4h6.2V-50.6z M-4.9-34
		c-2,0-3.8-0.4-5.3-1.2c-1.6-0.8-2.8-1.9-3.7-3.4c-0.9-1.5-1.3-3.1-1.3-4.9c0-1.8,0.4-3.4,1.3-4.9c0.9-1.5,2.1-2.6,3.7-3.4
		s3.4-1.2,5.4-1.2s3.8,0.4,5.4,1.2c1.6,0.8,2.8,1.9,3.7,3.4c0.9,1.4,1.3,3.1,1.3,4.9S5-40.1,4.1-38.7c-0.9,1.5-2.1,2.6-3.7,3.4
		C-1.1-34.4-2.9-34-4.9-34z M-4.9-39.2c1.1,0,2.1-0.4,2.8-1.2c0.7-0.8,1.1-1.9,1.1-3.2c0-1.4-0.4-2.4-1.1-3.2
		c-0.7-0.8-1.7-1.2-2.8-1.2c-1.1,0-2.1,0.4-2.8,1.2c-0.7,0.8-1.1,1.8-1.1,3.2c0,1.4,0.4,2.5,1.1,3.2C-7-39.6-6.1-39.2-4.9-39.2z"/>
</g>
<g id="SvgjsG1024" transform="matrix(1,0,0,1,61.00161361694336,62)">
	<path id="color_2" class="st1" d="M-11.4,16.3L-11.4,16.3C-26.9,15.8-39,2.9-38.5-12.5c0.1-3.3,0.8-6.5,2-9.5
		c0.5-1.3,1.9-1.9,3.2-1.4c1.3,0.5,1.9,1.9,1.4,3.2C-36.7-8.3-30.9,5-19.1,9.7c2.5,1,5.1,1.5,7.8,1.6c1.4,0,2.4,1.2,2.4,2.5
		C-8.9,15.2-10,16.3-11.4,16.3L-11.4,16.3z M1.9,13.3C10.4,9.1,16.1,0.9,17.1-8.5c0.2-1.4-0.8-2.6-2.2-2.7c-1.4-0.2-2.6,0.8-2.7,2.2
		C11.4-1.3,6.6,5.5-0.3,8.9C-1.5,9.5-2,11-1.4,12.2S0.7,14,1.9,13.3L1.9,13.3L1.9,13.3z M13.9-18.8c1.3-0.5,1.9-1.9,1.4-3.2
		C9.6-36.3-6.6-43.3-21-37.5c-3,1.2-5.8,2.9-8.2,5.1c-1,0.9-1.1,2.5-0.2,3.5c0.9,1,2.5,1.1,3.5,0.2c9.5-8.4,24-7.6,32.5,1.9
		c1.8,2,3.2,4.3,4.2,6.7c0.4,0.9,1.3,1.6,2.3,1.6C13.3-18.6,13.7-18.6,13.9-18.8z M20.3,8.5c11.1-17,6.3-39.7-10.6-50.9
		c-1.1-0.8-2.7-0.4-3.4,0.7c-0.8,1.1-0.4,2.7,0.7,3.4c14.7,9.7,18.8,29.4,9.2,44.1c-0.7,1.1-0.4,2.7,0.7,3.4
		C18,10,19.5,9.6,20.3,8.5L20.3,8.5z M-0.3-44.5c0.3-1.3-0.5-2.7-1.8-3c0,0,0,0,0,0c-4.8-1.1-9.7-1.3-14.5-0.5
		c-1.3,0.2-2.3,1.5-2,2.8s1.5,2.3,2.8,2c4.2-0.7,8.5-0.5,12.6,0.4c0.2,0,0.4,0.1,0.6,0.1C-1.5-42.6-0.5-43.4-0.3-44.5z M-42.7,1
		c1.3-0.4,2-1.8,1.6-3.1c0,0,0,0,0,0c-4.5-14.5,1.8-30.2,15.1-37.5c1.2-0.7,1.6-2.2,1-3.4c-0.7-1.2-2.2-1.6-3.3-1
		C-43.7-35.5-51-17.4-45.8-0.7C-45.4,0.6-44,1.4-42.7,1C-42.7,1-42.7,1-42.7,1L-42.7,1z M11.9,17.6c1.1-0.8,1.3-2.4,0.5-3.5
		c-0.8-1.1-2.4-1.3-3.5-0.5c0,0,0,0,0,0C3.3,18-3.6,20.3-10.6,20.3c-10.2,0-19.8-4.9-25.8-13.2c-0.8-1.1-2.3-1.3-3.5-0.5
		c-1.1,0.8-1.3,2.3-0.5,3.4c6.9,9.5,18,15.2,29.8,15.2C-2.5,25.3,5.4,22.6,11.9,17.6z M-41.5-38.4c6.7-7.8,16.1-12.7,26.3-13.8
		c1.4-0.2,2.3-1.4,2.2-2.7c0,0,0,0,0,0c-0.1-1.3-1.3-2.3-2.6-2.2c0,0-0.1,0-0.1,0c-11.4,1.3-22,6.8-29.5,15.5
		c-0.9,1-0.8,2.6,0.2,3.5C-43.9-37.2-42.4-37.3-41.5-38.4C-41.5-38.4-41.5-38.4-41.5-38.4z M-30.6,26.9c0.7-1.2,0.3-2.7-0.9-3.4
		c-12.4-7.4-19.9-20.7-20-35.1c0-6,1.3-11.9,3.9-17.3c0.6-1.2,0-2.7-1.2-3.3c-1.2-0.6-2.7,0-3.3,1.2c-2.9,6.1-4.3,12.7-4.3,19.4
		c0,16.1,8.5,31.1,22.4,39.4C-32.8,28.4-31.3,28-30.6,26.9C-30.6,26.9-30.6,26.9-30.6,26.9L-30.6,26.9z M32.3,4.4
		c0.5-1.3-0.2-2.7-1.5-3.2c-1.3-0.5-2.7,0.2-3.2,1.5C20.2,22.4-1,33.3-21.3,27.8c-1.3-0.4-2.7,0.4-3,1.7c-0.4,1.3,0.4,2.7,1.7,3l0,0
		C0.2,38.7,24,26.5,32.3,4.4z M35-7.6c0.1-1.3,0.2-2.6,0.2-4c0.1-22.5-16.2-41.7-38.4-45.2c-1.3-0.2-2.6,0.7-2.8,2
		c-0.2,1.3,0.7,2.6,2,2.8c19.8,3.1,34.4,20.2,34.3,40.3c0,1.2,0,2.4-0.2,3.6c-0.1,1.4,0.9,2.6,2.2,2.7c0.1,0,0.1,0,0.2,0
		C33.8-5.4,34.9-6.4,35-7.6L35-7.6z"/>
	<path id="color_1" class="st0" d="M-1.3-25.3l-4.5,29c-0.1,0.6-0.6,1.1-1.1,1.1c-0.1,0-0.1,0-0.2,0c-0.5,0-1-0.3-1.2-0.8l-5.3-10.5
		l-11.8,0.6c-0.6,0-1.1-0.3-1.4-0.9c-0.2-0.6,0-1.2,0.4-1.6l22.9-18.4c0.6-0.5,1.5-0.4,1.9,0.2C-1.3-26-1.2-25.6-1.3-25.3z"/>
</g>
</svg>
