<svg width="99" height="22" viewBox="0 0 99 22" fill="none" xmlns="http://www.w3.org/2000/svg">
<g clip-path="url(#clip0)">
<path fill-rule="evenodd" clip-rule="evenodd" d="M11.071 0C4.95 0 0 4.87768 0 10.903C0 16.9284 4.97661 21.8061 11.1242 21.78C17.2718 21.78 22.2218 16.8502 22.1952 10.8509C22.1952 4.85159 17.2185 0 11.071 0ZM15.6484 18.5195C16.2073 16.5893 16.4202 14.633 16.3403 12.3898C16.9258 12.5463 17.2452 12.6507 17.8306 12.8072C17.1653 11.1378 16.4202 9.65102 15.4621 8.11207C14.6371 9.6771 13.4927 11.1639 12.3484 12.3377L14.2113 12.2333C12.6145 15.0504 10.3524 16.4067 7.50484 16.798C6.83952 13.6418 7.31855 8.45116 10.9645 6.02537L11.3371 7.7469C12.0556 6.62529 13.4395 5.13852 14.504 4.12125C12.854 3.49523 10.9379 3.28656 9.075 3.62565C9.36774 3.88649 9.74032 4.1995 10.0597 4.43425C5.96129 6.15578 3.69919 8.97284 2.20887 12.2333C2.15565 11.816 2.12903 11.3465 2.12903 10.9291C2.10242 6.05145 6.12097 2.08671 11.071 2.08671C16.0476 2.08671 20.0927 6.02537 20.0927 10.903C20.1194 14.1114 18.3363 16.9806 15.6484 18.5195Z" fill="white"/>
<path fill-rule="evenodd" clip-rule="evenodd" d="M20.1194 10.8771C20.1194 14.1114 18.3363 16.9807 15.675 18.4935C16.2339 16.5633 16.4468 14.607 16.3669 12.3638C16.9524 12.5203 17.2718 12.6247 17.8573 12.7812C17.1919 11.1118 16.4468 9.62503 15.4887 8.08608C14.6637 9.65111 13.5194 11.1379 12.375 12.3117L14.2379 12.2073C12.6411 15.0244 10.379 16.3807 7.53146 16.772C6.86613 13.6159 7.34517 8.42517 10.9911 5.99937L11.3637 7.72091C12.0823 6.5993 13.4661 5.11252 14.5306 4.09525C12.8806 3.46924 10.9645 3.26057 9.10162 3.59966C9.39436 3.8605 9.76694 4.17351 10.0863 4.40826C5.9613 6.15588 3.6992 8.97293 2.20888 12.2334C2.15565 11.8161 2.12904 11.3466 2.12904 10.9292C2.10242 6.05154 6.12097 2.0868 11.071 2.0868C16.0742 2.06071 20.0927 5.99937 20.1194 10.8771Z" fill="#E11931"/>
<path d="M32.1215 16.1197C32.1215 16.2763 32.1215 16.4328 32.1215 16.5893C31.669 16.5893 31.2698 16.5893 30.8174 16.5893C30.8174 16.8762 30.8174 17.2153 30.8174 17.5022H32.2545C32.2545 17.6587 32.2545 17.8152 32.2545 17.9717H30.2585V14.7895H32.2279C32.2279 14.946 32.2279 15.1025 32.2279 15.259C31.7489 15.259 31.2698 15.259 30.7908 15.259V16.0676C31.2432 16.1197 31.6956 16.1197 32.1215 16.1197ZM28.0231 17.9978H26.0537V14.8416C26.24 14.8416 26.4263 14.8416 26.6126 14.8416V17.5022H28.0497C28.0231 17.6587 28.0231 17.8152 28.0231 17.9978ZM38.5884 14.8416L37.8432 15.6763C37.7368 15.6242 37.6569 15.5981 37.5505 15.572L37.8166 14.8416C38.0827 14.8416 38.3489 14.8416 38.5884 14.8416ZM39.919 15.4155C39.8392 15.4677 39.8126 15.5459 39.8126 15.7024C39.8126 15.9632 39.919 16.0676 40.1585 16.1197L40.6642 16.1719C41.1698 16.2241 41.4892 16.4849 41.4892 17.0327V17.2153C41.4892 17.3457 41.4626 17.4761 41.4094 17.6065C41.3561 17.7109 41.3029 17.8152 41.1965 17.8934C41.09 17.9978 40.9303 17.9978 40.7973 18.0239C40.6642 18.05 40.5045 18.05 40.3448 18.05H39.3069C39.3069 17.8674 39.3069 17.6848 39.3069 17.5022H40.4513C40.5045 17.5022 40.5311 17.5022 40.5844 17.5022C40.8239 17.5022 40.9569 17.45 40.9303 17.1109C40.9303 16.9544 40.8771 16.8501 40.8239 16.824C40.744 16.7718 40.6642 16.7458 40.5311 16.7458L39.9989 16.6936C39.8126 16.6675 39.5997 16.6153 39.4666 16.4849C39.3336 16.3545 39.2271 16.1458 39.2271 15.8067C39.2271 15.7546 39.2271 15.7285 39.2271 15.6502C39.2537 15.3111 39.3602 15.1025 39.5731 14.9981C39.786 14.8938 40.0521 14.8677 40.3448 14.8677H41.3029C41.3029 15.0503 41.3029 15.2329 41.3029 15.4155H40.2916C40.1319 15.3633 39.9989 15.3633 39.919 15.4155ZM46.4126 17.9456V14.7895H47.7965C47.9029 14.7895 48.0626 14.8416 48.2223 14.9199C48.3819 14.9981 48.4618 15.1807 48.4618 15.4155V15.8067C48.4618 16.0676 48.3287 16.2241 48.2223 16.3023C48.3287 16.3806 48.4618 16.5371 48.4618 16.7718V17.2674C48.4618 17.6065 48.169 17.9195 47.8231 17.9195L46.4126 17.9456ZM47.8497 16.6153C47.8231 16.5893 47.7432 16.5371 47.7166 16.5371H46.9448V17.4239H47.7166C47.7698 17.4239 47.7965 17.3979 47.8497 17.3457C47.8763 17.3196 47.9029 17.2674 47.9029 17.2153V16.7458C47.9295 16.7458 47.9029 16.6675 47.8497 16.6153ZM47.8763 15.3372C47.8231 15.2851 47.7698 15.259 47.7166 15.259H46.9448V16.0676H47.7432C47.7965 16.0676 47.8231 16.0415 47.8763 15.9893C47.9295 15.9372 47.9561 15.885 47.9561 15.8328V15.4677C47.9295 15.4677 47.9029 15.3894 47.8763 15.3372ZM68.0223 16.0676H69.3263C69.3263 16.2241 69.3263 16.3806 69.3263 16.5371H68.0223V17.45H69.4594C69.4594 17.6065 69.4594 17.763 69.4594 17.9195H67.49V14.7373C68.1287 14.7373 68.8207 14.7373 69.4594 14.7373C69.4594 14.8938 69.4594 15.0503 69.4594 15.2068H68.0223V16.0676ZM64.9618 17.9195H63.1787V14.7634C63.365 14.7634 63.5513 14.7634 63.7376 14.7634V17.4239H64.9618C64.9618 17.5804 64.9618 17.763 64.9618 17.9195ZM61.0231 15.259H60.1981V17.8934C60.0118 17.8934 59.8255 17.8934 59.6392 17.8934V15.259H58.8142C58.8142 15.1025 58.8142 14.946 58.8142 14.7895H60.9965C61.0231 14.946 61.0231 15.1025 61.0231 15.259ZM56.6852 15.2851H55.8602V17.9195C55.6739 17.9195 55.4876 17.9195 55.3013 17.9195V15.2851H54.4763C54.4763 15.1286 54.4763 14.9721 54.4763 14.8156H56.6585C56.6852 14.9721 56.6852 15.1286 56.6852 15.2851ZM51.0698 17.2674L50.9102 17.9456H50.3247L51.2029 14.7895C51.4424 14.7895 51.6553 14.7895 51.9215 14.7895L52.7997 17.9456C52.6134 17.9456 52.4005 17.9456 52.2142 17.9456L52.0279 17.2674H51.0698ZM51.2029 16.7979H51.8948L51.5489 15.4416L51.2029 16.7979ZM36.4061 15.3111C36.14 15.3111 35.8739 15.3111 35.5811 15.3111V17.9456C35.3948 17.9456 35.2086 17.9456 35.0223 17.9456V15.3111C34.7561 15.3111 34.49 15.3111 34.1973 15.3111C34.1973 15.1546 34.1973 14.9981 34.1973 14.8416H36.3795C36.4061 14.9981 36.4061 15.1546 36.4061 15.3111Z" fill="#E11931"/>
<path d="M28.3162 6.26011L29.1146 10.6944L30.8976 10.6683L32.8138 3.72998H31.1105L30.046 8.24248L29.2742 3.72998H28.5291H28.1033H27.3315L26.5863 8.24248L25.5218 3.72998H23.792L25.7613 10.6944H27.5444L28.3162 6.26011Z" fill="white"/>
<path d="M33.932 10.6682L34.2513 9.23363H36.0344L36.3538 10.6682H37.9505L35.9812 3.70386H34.2247L32.3086 10.6682H33.932ZM35.1562 5.42539L35.7683 8.05986H34.5707L35.1562 5.42539Z" fill="white"/>
<path d="M40.3189 8.05986H41.3036L42.2617 10.6682H44.0181L42.7673 7.77294C43.2996 7.59035 43.6456 7.12084 43.6456 6.57308V5.03413C43.6456 4.40812 43.1931 3.91253 42.6077 3.78211C42.2351 3.70386 41.8625 3.70386 41.4633 3.70386H38.7754L38.802 10.6682H40.3189V8.05986ZM40.3189 5.06022H41.5964C41.8625 5.06022 42.1286 5.19064 42.1286 5.50364V6.18182C42.1286 6.52091 41.8891 6.67741 41.5964 6.67741H40.3189V5.06022Z" fill="white"/>
<path d="M48.1963 10.7206C48.9414 10.7206 49.3938 10.5119 49.7664 10.2511V6.5472H47.3713V7.87748H48.2495C48.2495 8.3209 48.2495 8.71216 48.2495 9.20775C48.1164 9.23384 47.9567 9.25992 47.7971 9.25992H47.185C46.3334 9.25992 46.1204 8.65999 46.1204 8.03398V6.31245C46.1204 5.66035 46.4132 5.16476 47.2382 5.16476H49.66V3.67798H47.1583C45.7745 3.67798 44.7632 4.51266 44.6301 5.92119C44.6301 6.02552 44.6035 6.15594 44.6035 6.26028V8.26873C44.6035 9.72943 45.6414 10.7467 47.0253 10.7467L48.1963 10.7206Z" fill="white"/>
<path d="M51.8421 10.6424L52.1615 9.20775H53.9446L54.2639 10.6424H55.8607L53.8913 3.67798H52.1349L50.2188 10.6424H51.8421ZM53.0397 5.39951L53.6518 8.03398H52.4542L53.0397 5.39951Z" fill="white"/>
<path d="M61.795 6.36433V10.616H63.2587L63.2321 3.65161H61.3426L59.9321 8.84229L58.5216 3.6777H56.6055L56.6321 10.616H58.0692V6.36433L59.1603 10.616H60.7039L61.795 6.36433Z" fill="white"/>
<path d="M66.0267 10.616L66.0001 3.65161H64.5098V10.616H66.0267Z" fill="white"/>
<path d="M72.5201 10.5901L72.4935 3.62573L71.0298 3.65182L71.0564 7.79915L68.7677 3.65182H67.2773V10.6162L68.7144 10.5901V6.44279L71.0298 10.5901H72.5201Z" fill="white"/>
<path d="M87.6365 10.564L87.6099 3.59961H86.1462V7.77302L83.8575 3.62569H82.3672L82.3938 10.564H83.8309V6.41666L86.1462 10.564H87.6365Z" fill="white"/>
<path d="M93.0117 6.28624H90.2972V4.95597L93.2779 4.92988V3.59961H88.7803V10.564H93.3045V9.20763H90.2972V7.61652H93.0117V6.28624Z" fill="white"/>
<path d="M98.9998 4.92985V3.57349L94.0498 3.59957V4.92985H95.7796L95.8063 10.5379H97.2966V4.92985H98.9998Z" fill="white"/>
<path d="M77.0449 10.6422C77.7901 10.6422 78.2425 10.4336 78.6151 10.1727V6.46883H76.2199V7.79911H77.0981C77.0981 8.24253 77.0981 8.63379 77.0981 9.12938C76.9651 9.15547 76.8054 9.18155 76.6457 9.18155H76.0336C75.182 9.18155 74.9691 8.58162 74.9691 7.95561V6.23408C74.9691 5.58198 75.2618 5.08639 76.0868 5.08639H78.5086V3.59961H76.007C74.6231 3.59961 73.6118 4.43429 73.4788 5.84282C73.4788 5.94715 73.4521 6.07757 73.4521 6.18191V8.19036C73.4521 9.65106 74.4901 10.6683 75.8739 10.6683L77.0449 10.6422Z" fill="white"/>
<path fill-rule="evenodd" clip-rule="evenodd" d="M79.8125 9.28589H81.2762V10.6944H79.8125V9.28589Z" fill="white"/>
</g>
<defs>
<clipPath id="clip0">
<rect width="99" height="21.78" fill="black"/>
</clipPath>
</defs>
</svg>
