<svg width="208" height="208" viewBox="0 0 208 208" fill="none" xmlns="http://www.w3.org/2000/svg">
<path d="M79.111 66H128.89C136.437 66 142.539 72.1019 142.539 79.649V127.501C142.539 135.048 136.437 141.15 128.89 141.15H79.111C71.5638 141.15 65.4619 135.048 65.4619 127.501V79.649C65.4619 72.1019 71.5638 66 79.111 66Z" fill="#00005B"/>
<path d="M96.4211 110.96H84.4742L82.0334 118.539C81.9692 118.828 81.7123 119.021 81.4232 118.989H75.3855C75.0323 118.989 74.9359 118.796 75.0323 118.411L85.3734 88.7684C85.4698 88.4472 85.5661 88.1582 85.6946 87.7728C85.823 87.0984 85.8873 86.3918 85.8873 85.6853C85.8551 85.5247 85.9836 85.3641 86.1442 85.332H86.2405H94.4621C94.6869 85.332 94.8474 85.4284 94.8796 85.589L106.602 118.347C106.698 118.7 106.602 118.86 106.281 118.86H99.5684C99.3436 118.893 99.1188 118.732 99.0546 118.507L96.4211 110.8V110.96ZM86.3369 104.569H94.4942C94.3015 103.895 94.0446 103.092 93.7555 102.257C93.4665 101.39 93.1774 100.458 92.8884 99.4949C92.5673 98.4993 92.2782 97.5359 91.9571 96.5403C91.6359 95.5447 91.3469 94.6134 91.0899 93.682C90.833 92.7828 90.6082 91.9478 90.3834 91.177H90.3192C90.0301 92.558 89.6769 93.939 89.2273 95.3199C88.7455 96.8615 88.2638 98.4672 87.7499 100.073C87.3324 101.711 86.8186 103.22 86.3369 104.569Z" fill="#9999FF"/>
<path d="M125.518 108.069H115.337C115.466 109.065 115.787 110.061 116.333 110.928C116.911 111.795 117.714 112.469 118.677 112.855C119.962 113.401 121.375 113.69 122.788 113.657C123.912 113.625 125.036 113.529 126.128 113.304C127.124 113.176 128.087 112.919 128.986 112.566C129.147 112.437 129.243 112.501 129.243 112.822V117.736C129.243 117.865 129.211 117.993 129.179 118.122C129.115 118.218 129.05 118.282 128.954 118.346C127.926 118.796 126.867 119.117 125.743 119.31C124.233 119.599 122.724 119.727 121.182 119.695C118.741 119.695 116.686 119.31 115.016 118.571C113.442 117.897 112.061 116.837 110.969 115.52C109.942 114.268 109.203 112.855 108.754 111.313C108.304 109.804 108.079 108.23 108.079 106.624C108.079 104.89 108.336 103.188 108.882 101.518C109.396 99.9121 110.199 98.4348 111.291 97.1181C112.35 95.8334 113.667 94.8058 115.177 94.0671C116.686 93.3284 118.484 93.0715 120.54 93.0715C122.242 93.0394 123.944 93.3606 125.518 94.0671C126.834 94.6452 127.991 95.5123 128.89 96.6363C129.725 97.7283 130.399 98.9486 130.817 100.297C131.234 101.582 131.427 102.899 131.427 104.216C131.427 104.986 131.395 105.661 131.363 106.271C131.299 106.881 131.266 107.331 131.234 107.62C131.202 107.845 131.009 108.037 130.785 108.037C130.592 108.037 130.239 108.069 129.725 108.102C129.211 108.166 128.601 108.198 127.862 108.198C127.124 108.198 126.353 108.069 125.518 108.069ZM115.337 103.381H122.114C122.949 103.381 123.559 103.381 123.944 103.348C124.201 103.316 124.458 103.252 124.683 103.092V102.77C124.683 102.353 124.619 101.967 124.49 101.582C123.912 99.7836 122.21 98.5633 120.315 98.6275C118.549 98.5311 116.879 99.4625 116.044 101.068C115.658 101.807 115.434 102.578 115.337 103.381Z" fill="#9999FF"/>
</svg>
