<svg width="208" height="208" viewBox="0 0 208 208" fill="none" xmlns="http://www.w3.org/2000/svg">
<path d="M105.545 146.506H103.04C102.924 146.464 102.807 146.453 102.69 146.453C101.352 146.39 100.025 146.282 98.7083 146.103C96.2463 145.784 93.8254 145.243 91.4689 144.49C87.4247 143.196 83.6563 141.339 80.1639 138.919C76.9254 136.668 74.0605 134.015 71.5654 130.96C68.624 127.372 66.332 123.413 64.7071 119.063C63.2524 115.2 62.3822 111.2 62.1162 107.071C62.1162 106.849 62.0739 106.626 62 106.403V102.041C62.0739 101.849 62.1056 101.648 62.1162 101.447C62.169 100.46 62.2746 99.4723 62.4035 98.4966C63.0409 93.785 64.4412 89.3161 66.5965 85.0815C68.0825 82.1627 69.8874 79.4471 72.0095 76.9411C74.1116 74.4583 76.4683 72.2394 79.0789 70.2979C83.3359 67.1348 88.0175 64.8533 93.1335 63.4533C95.6171 62.7749 98.155 62.3292 100.723 62.1162C101.179 62.0739 101.658 62.1162 102.114 62H106.402C106.731 62.0951 107.071 62.0423 107.399 62.0739C109.099 62.2218 110.786 62.4354 112.463 62.7639C117.739 63.804 122.632 65.7785 127.155 68.6954C130.669 70.9557 133.768 73.6829 136.475 76.8559C138.651 79.4032 140.497 82.1733 142.005 85.1648C143.788 88.6994 145.062 92.4023 145.785 96.2967C146.167 98.3553 146.454 100.435 146.464 102.537C146.464 102.676 146.495 102.824 146.506 102.961V105.466C146.464 105.624 146.464 105.794 146.453 105.964C146.453 106.367 146.453 106.772 146.421 107.174C146.229 109.743 145.827 112.279 145.19 114.783C143.969 119.485 142.004 123.847 139.276 127.868C137.248 130.861 134.882 133.557 132.164 135.944C129.457 138.322 126.495 140.328 123.278 141.95C119.572 143.817 115.677 145.113 111.59 145.823C110.019 146.099 108.437 146.279 106.845 146.375C106.426 146.423 105.98 146.413 105.544 146.506L105.545 146.506Z" fill="#383838"/>
<path style="mix-blend-mode:lighten" d="M93.2632 86.7209C93.2337 87.4973 93.3716 88.346 93.6003 89.1949C94.0361 90.8101 94.7583 92.2901 95.61 93.6881C97.5501 96.8672 99.9955 99.5889 102.649 102.116C102.866 102.324 103.125 102.499 103.402 102.633C103.679 102.777 103.956 102.777 104.243 102.653C104.52 102.53 104.768 102.354 104.976 102.125C105.896 101.173 106.807 100.22 107.678 99.2358C108.906 97.8378 110.074 96.3996 111.134 94.8568C112.095 93.459 112.955 91.9885 113.588 90.3941C114.221 88.8094 114.529 87.1748 114.321 85.4562C113.975 82.6202 112.817 80.2173 110.747 78.3332C108.3 76.1089 105.45 75.2184 102.242 75.7145C97.0253 76.523 93.2432 81.327 93.2632 86.7206V86.7209Z" fill="url(#paint0_radial_86_1264)"/>
<path d="M120.263 125.376C119.606 125.396 118.869 125.315 118.132 125.159C115.951 124.681 114.099 123.69 112.675 121.932C111.81 120.86 111.082 119.698 110.454 118.476C109.717 117.036 109.101 115.536 108.563 114.018C107.907 112.181 107.349 110.305 106.92 108.408C106.682 107.345 106.949 106.679 108.125 106.313C109.618 105.847 111.122 105.43 112.655 105.091C115.194 104.535 117.752 104.178 120.362 104.266C121.1 104.296 121.835 104.375 122.563 104.504C124.674 104.872 126.466 105.845 127.93 107.384C130.429 110.005 131.424 113.133 130.807 116.698C129.921 121.793 125.4 125.417 120.263 125.376V125.376Z" fill="url(#paint1_radial_86_1264)"/>
<path d="M87.3816 125.376C88.0383 125.396 88.7756 125.315 89.5127 125.159C91.6935 124.681 93.5458 123.69 94.9693 121.932C95.835 120.86 96.5628 119.698 97.1901 118.476C97.9276 117.036 98.5439 115.536 99.0813 114.018C99.7379 112.181 100.295 110.305 100.725 108.408C100.963 107.345 100.695 106.679 99.5197 106.313C98.0267 105.847 96.5226 105.43 94.9893 105.091C92.4508 104.535 89.8921 104.178 87.2823 104.266C86.545 104.296 85.8093 104.375 85.0815 104.504C82.9704 104.872 81.1786 105.845 79.7151 107.384C77.2152 110.005 76.2209 113.133 76.8373 116.698C77.7233 121.793 82.2442 125.417 87.3816 125.376V125.376Z" fill="url(#paint2_radial_86_1264)"/>
<path d="M105.545 146.506H103.04C102.924 146.464 102.807 146.453 102.69 146.453C101.352 146.39 100.025 146.282 98.7083 146.103C96.2463 145.784 93.8254 145.243 91.4689 144.49C87.4247 143.196 83.6563 141.339 80.1639 138.919C76.9254 136.668 74.0605 134.015 71.5654 130.96C68.624 127.372 66.332 123.413 64.7071 119.063C63.2524 115.2 62.3822 111.2 62.1162 107.071C62.1162 106.849 62.0739 106.626 62 106.403V102.041C62.0739 101.849 62.1056 101.648 62.1162 101.447C62.169 100.46 62.2746 99.4723 62.4035 98.4966C63.0409 93.785 64.4412 89.3161 66.5965 85.0815C68.0825 82.1627 69.8874 79.4471 72.0095 76.9411C74.1116 74.4583 76.4683 72.2394 79.0789 70.2979C83.3359 67.1348 88.0175 64.8533 93.1335 63.4533C95.6171 62.7749 98.155 62.3292 100.723 62.1162C101.179 62.0739 101.658 62.1162 102.114 62H106.402C106.731 62.0951 107.071 62.0423 107.399 62.0739C109.099 62.2218 110.786 62.4354 112.463 62.7639C117.739 63.804 122.632 65.7785 127.155 68.6954C130.669 70.9557 133.768 73.6829 136.475 76.8559C138.651 79.4032 140.497 82.1733 142.005 85.1648C143.788 88.6994 145.062 92.4023 145.785 96.2967C146.167 98.3553 146.454 100.435 146.464 102.537C146.464 102.676 146.495 102.824 146.506 102.961V105.466C146.464 105.624 146.464 105.794 146.453 105.964C146.453 106.367 146.453 106.772 146.421 107.174C146.229 109.743 145.827 112.279 145.19 114.783C143.969 119.485 142.004 123.847 139.276 127.868C137.248 130.861 134.882 133.557 132.164 135.944C129.457 138.322 126.495 140.328 123.278 141.95C119.572 143.817 115.677 145.113 111.59 145.823C110.019 146.099 108.437 146.279 106.845 146.375C106.426 146.423 105.98 146.413 105.544 146.506L105.545 146.506Z" fill="#383838"/>
<path style="mix-blend-mode:lighten" d="M93.2632 86.7209C93.2337 87.4973 93.3716 88.346 93.6003 89.1949C94.0361 90.8101 94.7583 92.2901 95.61 93.6881C97.5501 96.8672 99.9955 99.5889 102.649 102.116C102.866 102.324 103.125 102.499 103.402 102.633C103.679 102.777 103.956 102.777 104.243 102.653C104.52 102.53 104.768 102.354 104.976 102.125C105.896 101.173 106.807 100.22 107.678 99.2358C108.906 97.8378 110.074 96.3996 111.134 94.8568C112.095 93.459 112.955 91.9885 113.588 90.3941C114.221 88.8094 114.529 87.1748 114.321 85.4562C113.975 82.6202 112.817 80.2173 110.747 78.3332C108.3 76.1089 105.45 75.2184 102.242 75.7145C97.0253 76.523 93.2432 81.327 93.2632 86.7206V86.7209Z" fill="url(#paint3_radial_86_1264)"/>
<path d="M120.263 125.376C119.606 125.396 118.869 125.315 118.132 125.159C115.951 124.681 114.099 123.69 112.675 121.932C111.81 120.86 111.082 119.698 110.454 118.476C109.717 117.036 109.101 115.536 108.563 114.018C107.907 112.181 107.349 110.305 106.92 108.408C106.682 107.345 106.949 106.679 108.125 106.313C109.618 105.847 111.122 105.43 112.655 105.091C115.194 104.535 117.752 104.178 120.362 104.266C121.1 104.296 121.835 104.375 122.563 104.504C124.674 104.872 126.466 105.845 127.93 107.384C130.429 110.005 131.424 113.133 130.807 116.698C129.921 121.793 125.4 125.417 120.263 125.376V125.376Z" fill="url(#paint4_radial_86_1264)"/>
<path d="M87.3816 125.376C88.0383 125.396 88.7756 125.315 89.5127 125.159C91.6935 124.681 93.5458 123.69 94.9693 121.932C95.835 120.86 96.5628 119.698 97.1901 118.476C97.9276 117.036 98.5439 115.536 99.0813 114.018C99.7379 112.181 100.295 110.305 100.725 108.408C100.963 107.345 100.695 106.679 99.5197 106.313C98.0267 105.847 96.5226 105.43 94.9893 105.091C92.4508 104.535 89.8921 104.178 87.2823 104.266C86.545 104.296 85.8093 104.375 85.0815 104.504C82.9704 104.872 81.1786 105.845 79.7151 107.384C77.2152 110.005 76.2209 113.133 76.8373 116.698C77.7233 121.793 82.2442 125.417 87.3816 125.376V125.376Z" fill="url(#paint5_radial_86_1264)"/>
<defs>
<radialGradient id="paint0_radial_86_1264" cx="0" cy="0" r="1" gradientUnits="userSpaceOnUse" gradientTransform="translate(104.027 101.336) rotate(4.82254) scale(11.2206 20.7413)">
<stop stop-color="white"/>
<stop offset="1" stop-color="#009BD8"/>
</radialGradient>
<radialGradient id="paint1_radial_86_1264" cx="0" cy="0" r="1" gradientUnits="userSpaceOnUse" gradientTransform="translate(106.958 107.759) rotate(21.7759) scale(24.7437 13.2225)">
<stop stop-color="white"/>
<stop offset="1" stop-color="#FF3044"/>
</radialGradient>
<radialGradient id="paint2_radial_86_1264" cx="0" cy="0" r="1" gradientUnits="userSpaceOnUse" gradientTransform="translate(100.556 106.862) rotate(146.321) scale(25.0053 11.3662)">
<stop stop-color="white"/>
<stop offset="1" stop-color="#FCFF7C"/>
</radialGradient>
<radialGradient id="paint3_radial_86_1264" cx="0" cy="0" r="1" gradientUnits="userSpaceOnUse" gradientTransform="translate(104.027 101.336) rotate(4.82254) scale(11.2206 20.7413)">
<stop stop-color="white"/>
<stop offset="1" stop-color="#009BD8"/>
</radialGradient>
<radialGradient id="paint4_radial_86_1264" cx="0" cy="0" r="1" gradientUnits="userSpaceOnUse" gradientTransform="translate(106.958 107.759) rotate(21.7759) scale(24.7437 13.2225)">
<stop stop-color="white"/>
<stop offset="1" stop-color="#FF3044"/>
</radialGradient>
<radialGradient id="paint5_radial_86_1264" cx="0" cy="0" r="1" gradientUnits="userSpaceOnUse" gradientTransform="translate(100.556 106.862) rotate(146.321) scale(25.0053 11.3662)">
<stop stop-color="white"/>
<stop offset="1" stop-color="#FCFF7C"/>
</radialGradient>
</defs>
</svg>
