<svg width="208" height="208" viewBox="0 0 208 208" fill="none" xmlns="http://www.w3.org/2000/svg">
<path d="M146.702 152C149.627 152 152 149.627 152 146.702V61.2979C152 58.3711 149.627 55.9993 146.702 55.9993H61.2983C58.3715 55.9993 56 58.3711 56 61.2979V146.702C56 149.627 58.3715 152 61.2983 152H146.702Z" fill="#3B5998"/>
<path d="M122.239 152V114.824H134.718L136.586 100.335H122.239V91.085C122.239 86.8902 123.403 84.0317 129.419 84.0317L137.091 84.0281V71.0698C135.764 70.8935 131.21 70.4989 125.911 70.4989C114.85 70.4989 107.277 77.2508 107.277 89.6505V100.335H94.7666V114.824H107.277V152H122.239Z" fill="white"/>
</svg>
