<svg width="208" height="208" viewBox="0 0 208 208" fill="none" xmlns="http://www.w3.org/2000/svg">
<path d="M104.5 104.5C104.5 96.308 111.104 89.667 119.25 89.667C127.396 89.667 134 96.308 134 104.5C134 112.692 127.396 119.333 119.25 119.333C111.103 119.333 104.5 112.692 104.5 104.5Z" fill="#1ABCFE"/>
<path d="M75 134.166C75 125.974 81.6037 119.333 89.7502 119.333H104.5V134.166C104.5 142.359 97.8963 149 89.7502 149C81.604 149 75 142.359 75 134.166Z" fill="#0ACF83"/>
<path d="M104.5 60V89.6667H119.25C127.396 89.6667 134 83.0254 134 74.8332C134 66.641 127.396 60 119.25 60H104.5Z" fill="#FF7262"/>
<path d="M75 74.8332C75 83.0254 81.6037 89.6667 89.7502 89.6667H104.5V60H89.7502C81.6037 60 75 66.641 75 74.8332Z" fill="#F24E1E"/>
<path d="M75 104.5C75 112.692 81.6037 119.333 89.7502 119.333H104.5V89.667H89.7502C81.6037 89.667 75 96.308 75 104.5Z" fill="#A259FF"/>
<path d="M104.5 104.5C104.5 96.308 111.104 89.667 119.25 89.667C127.396 89.667 134 96.308 134 104.5C134 112.692 127.396 119.333 119.25 119.333C111.103 119.333 104.5 112.692 104.5 104.5Z" fill="#1ABCFE"/>
<path d="M75 134.166C75 125.974 81.6037 119.333 89.7502 119.333H104.5V134.166C104.5 142.359 97.8963 149 89.7502 149C81.604 149 75 142.359 75 134.166Z" fill="#0ACF83"/>
<path d="M104.5 60V89.6667H119.25C127.396 89.6667 134 83.0254 134 74.8332C134 66.641 127.396 60 119.25 60H104.5Z" fill="#FF7262"/>
<path d="M75 74.8332C75 83.0254 81.6037 89.6667 89.7502 89.6667H104.5V60H89.7502C81.6037 60 75 66.641 75 74.8332Z" fill="#F24E1E"/>
<path d="M75 104.5C75 112.692 81.6037 119.333 89.7502 119.333H104.5V89.667H89.7502C81.6037 89.667 75 96.308 75 104.5Z" fill="#A259FF"/>
</svg>
