<svg width="208" height="208" viewBox="0 0 208 208" fill="none" xmlns="http://www.w3.org/2000/svg">
<path d="M76.1486 90.1905H103.12L76 63.2694L76.199 63H131.619V90.3796H104.061L132 118.117H103.772V145.857L103.471 146C102.328 144.867 101.163 143.749 100.045 142.597C98.5451 141.06 97.0941 139.472 95.584 137.945C90.2195 132.52 84.8477 127.102 79.4688 121.691C78.4361 120.648 77.4495 119.562 76.476 118.458C76.2255 118.172 76.0774 117.811 76.0548 117.433C76.0327 108.503 76.0293 99.5721 76.0447 90.639C76.067 90.4869 76.1018 90.3369 76.1486 90.1905Z" fill="#F6F6F6"/>
<path d="M76.1486 90.1905H103.12L76 63.2694L76.199 63H131.619V90.3796H104.061L132 118.117H103.772V145.857L103.471 146C102.328 144.867 101.163 143.749 100.045 142.597C98.5451 141.06 97.0941 139.472 95.584 137.945C90.2195 132.52 84.8477 127.102 79.4688 121.691C78.4361 120.648 77.4495 119.562 76.476 118.458C76.2255 118.172 76.0774 117.811 76.0548 117.433C76.0327 108.503 76.0293 99.5721 76.0447 90.639C76.067 90.4869 76.1018 90.3369 76.1486 90.1905Z" fill="#F6F6F6"/>
</svg>
