<svg width="208" height="208" viewBox="0 0 208 208" fill="none" xmlns="http://www.w3.org/2000/svg">
<path d="M117.857 101.143H121.857V115.429H117.857V113.572C116.429 115.714 114.571 115.857 113.429 115.857C109 115.857 106.143 112.429 106.143 108.286C106.143 104 109 100.714 113.143 100.714C114.286 100.714 116.429 100.857 117.714 103V101.143H117.857ZM110.429 108.286C110.429 110.572 112 112.286 114.429 112.286C116.714 112.286 118.429 110.572 118.429 108.286C118.429 106 116.857 104.286 114.429 104.286C112.143 104.286 110.429 106 110.429 108.286ZM129.714 104.572V115.429H125.714V104.572H124.143V101.143H125.714V96.2859H129.714V101.143H132.429V104.572H129.714ZM141.857 104.572C140.857 103.714 140 103.572 139.571 103.572C138.571 103.572 138 104 138 104.714C138 105.143 138.143 105.572 139.286 106L140.286 106.286C141.429 106.714 143.143 107.143 143.857 108.286C144.286 108.857 144.571 109.714 144.571 110.714C144.571 112 144.143 113.286 143 114.286C141.857 115.286 140.429 115.857 138.714 115.857C135.714 115.857 134.143 114.429 133.143 113.429L135.286 111C136.143 111.857 137.286 112.714 138.429 112.714C139.571 112.714 140.428 112.143 140.428 111.143C140.428 110.286 139.714 109.857 139.143 109.714L138.286 109.429C137.286 109 136.143 108.572 135.286 107.714C134.571 107 134.143 106.143 134.143 105C134.143 103.572 134.857 102.429 135.571 101.714C136.714 100.857 138.143 100.714 139.286 100.714C140.286 100.714 142 100.857 143.857 102.286L141.857 104.572ZM150.571 103C152 101 154 100.714 155.143 100.714C159.286 100.714 162.143 104 162.143 108.286C162.143 112.572 159.286 115.857 155 115.857C154.143 115.857 152 115.714 150.428 113.572V115.429H146.571V91.4287H150.571V103ZM150.143 108.286C150.143 110.572 151.714 112.286 154.143 112.286C156.429 112.286 158.143 110.572 158.143 108.286C158.143 106 156.571 104.286 154.143 104.286C151.714 104.286 150.143 106 150.143 108.286ZM168.714 113.286L161.857 101.143H166.571L171 109.286L175 101.143H179.571L168.143 123H163.571L168.714 113.286ZM105.143 103.572H95.1428V107.572H100.429C99.5714 110.286 97.5714 112.143 93.8571 112.143C89.7142 112.143 86.7142 108.714 86.7142 104.572C86.7142 100.429 89.5714 96.8573 93.7142 96.8573C95.9999 96.8573 98.2856 98.0001 99.7142 99.8573L103 97.7144C100.857 94.7144 97.4285 93.0001 93.7142 93.0001C87.4285 93.0001 82.2856 98.143 82.2856 104.572C82.2856 111 87.1428 116.143 93.7142 116.143C100.286 116.143 105.143 111 105.143 104.572C105.286 104.143 105.143 103.857 105.143 103.572Z" fill="#F6F6F6"/>
<path d="M63.7142 104H53.7142V106.858H60.5714C59.5714 111.143 56.4285 114.715 52.2856 116.143L35.8571 99.7147C37.5714 94.7147 42.4285 91.1433 47.9999 91.1433C52.2856 91.1433 56.1428 93.2861 58.5714 96.5718L60.7142 94.7147C57.8571 90.8576 53.2856 88.2861 47.9999 88.2861C40.5714 88.2861 34.2856 93.5718 32.7142 100.572L51.5714 119.429C58.4285 117.715 63.7142 111.429 63.7142 104ZM32.2856 104.143C32.2856 108.143 33.8571 112 36.8571 115C39.8571 118 43.8571 119.572 47.7142 119.572L32.2856 104.143Z" fill="white"/>
<path d="M48 84C37 84 28 93 28 104C28 115 37 124 48 124C59 124 68 115 68 104C68 93 59 84 48 84ZM36.8571 115.143C33.8571 112.143 32.2857 108.143 32.2857 104.286L47.8571 119.714C43.8571 119.571 39.8571 118.143 36.8571 115.143ZM51.4286 119.286L32.7143 100.571C34.2857 93.5714 40.5714 88.2857 48 88.2857C53.2857 88.2857 57.8571 90.8571 60.7143 94.7143L58.5714 96.5714C56.1429 93.2857 52.2857 91.1429 48 91.1429C42.4286 91.1429 37.7143 94.7143 35.8571 99.7143L52.2857 116.143C56.4286 114.714 59.5714 111.143 60.5714 106.857H53.7143V104H63.7143C63.7143 111.429 58.4286 117.714 51.4286 119.286Z" fill="#663399"/>
<path d="M117.857 101.143H121.857V115.429H117.857V113.572C116.429 115.714 114.571 115.857 113.429 115.857C109 115.857 106.143 112.429 106.143 108.286C106.143 104 109 100.714 113.143 100.714C114.286 100.714 116.429 100.857 117.714 103V101.143H117.857ZM110.429 108.286C110.429 110.572 112 112.286 114.429 112.286C116.714 112.286 118.429 110.572 118.429 108.286C118.429 106 116.857 104.286 114.429 104.286C112.143 104.286 110.429 106 110.429 108.286ZM129.714 104.572V115.429H125.714V104.572H124.143V101.143H125.714V96.2859H129.714V101.143H132.429V104.572H129.714ZM141.857 104.572C140.857 103.714 140 103.572 139.571 103.572C138.571 103.572 138 104 138 104.714C138 105.143 138.143 105.572 139.286 106L140.286 106.286C141.429 106.714 143.143 107.143 143.857 108.286C144.286 108.857 144.571 109.714 144.571 110.714C144.571 112 144.143 113.286 143 114.286C141.857 115.286 140.429 115.857 138.714 115.857C135.714 115.857 134.143 114.429 133.143 113.429L135.286 111C136.143 111.857 137.286 112.714 138.429 112.714C139.571 112.714 140.428 112.143 140.428 111.143C140.428 110.286 139.714 109.857 139.143 109.714L138.286 109.429C137.286 109 136.143 108.572 135.286 107.714C134.571 107 134.143 106.143 134.143 105C134.143 103.572 134.857 102.429 135.571 101.714C136.714 100.857 138.143 100.714 139.286 100.714C140.286 100.714 142 100.857 143.857 102.286L141.857 104.572ZM150.571 103C152 101 154 100.714 155.143 100.714C159.286 100.714 162.143 104 162.143 108.286C162.143 112.572 159.286 115.857 155 115.857C154.143 115.857 152 115.714 150.428 113.572V115.429H146.571V91.4287H150.571V103ZM150.143 108.286C150.143 110.572 151.714 112.286 154.143 112.286C156.429 112.286 158.143 110.572 158.143 108.286C158.143 106 156.571 104.286 154.143 104.286C151.714 104.286 150.143 106 150.143 108.286ZM168.714 113.286L161.857 101.143H166.571L171 109.286L175 101.143H179.571L168.143 123H163.571L168.714 113.286ZM105.143 103.572H95.1428V107.572H100.429C99.5714 110.286 97.5714 112.143 93.8571 112.143C89.7142 112.143 86.7142 108.714 86.7142 104.572C86.7142 100.429 89.5714 96.8573 93.7142 96.8573C95.9999 96.8573 98.2856 98.0001 99.7142 99.8573L103 97.7144C100.857 94.7144 97.4285 93.0001 93.7142 93.0001C87.4285 93.0001 82.2856 98.143 82.2856 104.572C82.2856 111 87.1428 116.143 93.7142 116.143C100.286 116.143 105.143 111 105.143 104.572C105.286 104.143 105.143 103.857 105.143 103.572Z" fill="#F6F6F6"/>
<path d="M63.7142 104H53.7142V106.858H60.5714C59.5714 111.143 56.4285 114.715 52.2856 116.143L35.8571 99.7147C37.5714 94.7147 42.4285 91.1433 47.9999 91.1433C52.2856 91.1433 56.1428 93.2861 58.5714 96.5718L60.7142 94.7147C57.8571 90.8576 53.2856 88.2861 47.9999 88.2861C40.5714 88.2861 34.2856 93.5718 32.7142 100.572L51.5714 119.429C58.4285 117.715 63.7142 111.429 63.7142 104ZM32.2856 104.143C32.2856 108.143 33.8571 112 36.8571 115C39.8571 118 43.8571 119.572 47.7142 119.572L32.2856 104.143Z" fill="white"/>
<path d="M48 84C37 84 28 93 28 104C28 115 37 124 48 124C59 124 68 115 68 104C68 93 59 84 48 84ZM36.8571 115.143C33.8571 112.143 32.2857 108.143 32.2857 104.286L47.8571 119.714C43.8571 119.571 39.8571 118.143 36.8571 115.143ZM51.4286 119.286L32.7143 100.571C34.2857 93.5714 40.5714 88.2857 48 88.2857C53.2857 88.2857 57.8571 90.8571 60.7143 94.7143L58.5714 96.5714C56.1429 93.2857 52.2857 91.1429 48 91.1429C42.4286 91.1429 37.7143 94.7143 35.8571 99.7143L52.2857 116.143C56.4286 114.714 59.5714 111.143 60.5714 106.857H53.7143V104H63.7143C63.7143 111.429 58.4286 117.714 51.4286 119.286Z" fill="#663399"/>
</svg>
