<svg width="208" height="208" viewBox="0 0 208 208" fill="none" xmlns="http://www.w3.org/2000/svg">
<path fill-rule="evenodd" clip-rule="evenodd" d="M104 60C78.585 60 58 80.4174 58 105.626C58 125.815 71.1675 142.867 89.4525 148.913C91.7525 149.312 92.615 147.943 92.615 146.746C92.615 145.662 92.5575 142.069 92.5575 138.248C81 140.358 78.01 135.453 77.09 132.887C76.5725 131.575 74.33 127.526 72.375 126.442C70.765 125.587 68.465 123.477 72.3175 123.42C75.94 123.363 78.5275 126.727 79.39 128.096C83.53 134.997 90.1425 133.058 92.7875 131.86C93.19 128.895 94.3975 126.898 95.72 125.758C85.485 124.617 74.79 120.682 74.79 103.23C74.79 98.2685 76.5725 94.1621 79.505 90.9684C79.045 89.8277 77.435 85.1511 79.965 78.8776C79.965 78.8776 83.8175 77.6799 92.615 83.5542C96.295 82.5276 100.205 82.0143 104.115 82.0143C108.025 82.0143 111.935 82.5276 115.615 83.5542C124.413 77.6229 128.265 78.8776 128.265 78.8776C130.795 85.1511 129.185 89.8277 128.725 90.9684C131.658 94.1621 133.44 98.2114 133.44 103.23C133.44 120.739 122.688 124.617 112.453 125.758C114.12 127.184 115.558 129.921 115.558 134.199C115.558 140.301 115.5 145.206 115.5 146.746C115.5 147.943 116.362 149.369 118.663 148.913C136.833 142.867 150 125.758 150 105.626C150 80.4174 129.415 60 104 60Z" fill="#F6F6F6"/>
<path fill-rule="evenodd" clip-rule="evenodd" d="M104 60C78.585 60 58 80.4174 58 105.626C58 125.815 71.1675 142.867 89.4525 148.913C91.7525 149.312 92.615 147.943 92.615 146.746C92.615 145.662 92.5575 142.069 92.5575 138.248C81 140.358 78.01 135.453 77.09 132.887C76.5725 131.575 74.33 127.526 72.375 126.442C70.765 125.587 68.465 123.477 72.3175 123.42C75.94 123.363 78.5275 126.727 79.39 128.096C83.53 134.997 90.1425 133.058 92.7875 131.86C93.19 128.895 94.3975 126.898 95.72 125.758C85.485 124.617 74.79 120.682 74.79 103.23C74.79 98.2685 76.5725 94.1621 79.505 90.9684C79.045 89.8277 77.435 85.1511 79.965 78.8776C79.965 78.8776 83.8175 77.6799 92.615 83.5542C96.295 82.5276 100.205 82.0143 104.115 82.0143C108.025 82.0143 111.935 82.5276 115.615 83.5542C124.413 77.6229 128.265 78.8776 128.265 78.8776C130.795 85.1511 129.185 89.8277 128.725 90.9684C131.658 94.1621 133.44 98.2114 133.44 103.23C133.44 120.739 122.688 124.617 112.453 125.758C114.12 127.184 115.558 129.921 115.558 134.199C115.558 140.301 115.5 145.206 115.5 146.746C115.5 147.943 116.362 149.369 118.663 148.913C136.833 142.867 150 125.758 150 105.626C150 80.4174 129.415 60 104 60Z" fill="#F6F6F6"/>
</svg>
