<svg width="208" height="208" viewBox="0 0 208 208" fill="none" xmlns="http://www.w3.org/2000/svg">
<path d="M70.1757 147.183C67.5478 147.183 64.8841 146.501 62.4581 145.066C55.2383 140.797 52.8481 131.483 57.1172 124.263L90.705 67.4601C94.9741 60.2403 104.288 57.8457 111.508 62.1192C118.728 66.3883 121.118 75.7023 116.849 82.9221L83.261 139.725C80.4314 144.515 75.3686 147.183 70.1757 147.183Z" fill="#F9B918"/>
<path d="M137.387 147.183C132.194 147.183 127.136 144.519 124.302 139.721L90.7095 82.9221C86.4404 75.7023 88.8306 66.3883 96.0504 62.1192C103.27 57.8457 112.584 60.2403 116.853 67.4601L150.446 124.263C154.715 131.483 152.325 140.797 145.105 145.066C142.679 146.497 140.015 147.183 137.387 147.183Z" fill="#547EC0"/>
<path d="M70.0993 147.178C78.4381 147.178 85.1981 140.418 85.1981 132.079C85.1981 123.74 78.4381 116.98 70.0993 116.98C61.7605 116.98 55.0005 123.74 55.0005 132.079C55.0005 140.418 61.7605 147.178 70.0993 147.178Z" fill="#31A751"/>
</svg>
