<svg width="208" height="208" viewBox="0 0 208 208" fill="none" xmlns="http://www.w3.org/2000/svg">
<path d="M64.425 127.991L68.0908 130.107L108.929 59.3756L105.263 57.2591L64.425 127.991Z" fill="#E535AB"/>
<path d="M145.262 122.34H63.5854V126.573H145.262V122.34Z" fill="#E535AB"/>
<path d="M65.2016 124.718L106.055 148.306L108.172 144.64L67.3181 121.052L65.2016 124.718Z" fill="#E535AB"/>
<path d="M100.691 63.2426L141.544 86.8301L143.661 83.1643L102.807 59.5768L100.691 63.2426Z" fill="#E535AB"/>
<path d="M65.2131 83.1477L67.3296 86.8135L108.183 63.226L106.067 59.5602L65.2131 83.1477Z" fill="#E535AB"/>
<path d="M99.9532 59.3766L140.792 130.108L144.457 127.992L103.619 57.2601L99.9532 59.3766Z" fill="#E535AB"/>
<path d="M71.0567 80.3418H66.8237V127.517H71.0567V80.3418Z" fill="#E535AB"/>
<path d="M142.049 80.3418H137.816V127.517H142.049V80.3418Z" fill="#E535AB"/>
<path d="M103.486 143.312L105.334 146.514L140.866 125.999L139.017 122.797L103.486 143.312Z" fill="#E535AB"/>
<path d="M147.659 128.894C145.211 133.152 139.754 134.606 135.495 132.158C131.237 129.71 129.783 124.253 132.231 119.994C134.679 115.736 140.136 114.282 144.395 116.73C148.679 119.204 150.132 124.635 147.659 128.894Z" fill="#E535AB"/>
<path d="M76.6158 87.8635C74.1678 92.122 68.7108 93.5755 64.4523 91.1275C60.1938 88.6795 58.7403 83.2225 61.1883 78.964C63.6363 74.7055 69.0933 73.252 73.3518 75.7C77.6103 78.1735 79.0638 83.605 76.6158 87.8635Z" fill="#E535AB"/>
<path d="M61.2137 128.894C58.7657 124.635 60.2192 119.204 64.4777 116.73C68.7362 114.282 74.1677 115.736 76.6412 119.994C79.0892 124.253 77.6357 129.684 73.3772 132.158C69.0932 134.606 63.6617 133.152 61.2137 128.894Z" fill="#E535AB"/>
<path d="M132.257 87.8635C129.809 83.605 131.262 78.1735 135.521 75.7C139.779 73.252 145.211 74.7055 147.684 78.964C150.132 83.2225 148.679 88.654 144.42 91.1275C140.162 93.5755 134.705 92.122 132.257 87.8635Z" fill="#E535AB"/>
<path d="M104.436 153.858C99.5146 153.858 95.5366 149.88 95.5366 144.958C95.5366 140.037 99.5146 136.059 104.436 136.059C109.358 136.059 113.336 140.037 113.336 144.958C113.336 149.854 109.358 153.858 104.436 153.858Z" fill="#E535AB"/>
<path d="M104.436 71.799C99.5146 71.799 95.5366 67.821 95.5366 62.8995C95.5366 57.978 99.5146 54 104.436 54C109.358 54 113.336 57.978 113.336 62.8995C113.336 67.821 109.358 71.799 104.436 71.799Z" fill="#E535AB"/>
<path d="M64.425 127.991L68.0908 130.107L108.929 59.3756L105.263 57.2591L64.425 127.991Z" fill="#E535AB"/>
<path d="M145.262 122.34H63.5854V126.573H145.262V122.34Z" fill="#E535AB"/>
<path d="M65.2016 124.718L106.055 148.306L108.172 144.64L67.3181 121.052L65.2016 124.718Z" fill="#E535AB"/>
<path d="M100.691 63.2426L141.544 86.8301L143.661 83.1643L102.807 59.5768L100.691 63.2426Z" fill="#E535AB"/>
<path d="M65.2131 83.1477L67.3296 86.8135L108.183 63.226L106.067 59.5602L65.2131 83.1477Z" fill="#E535AB"/>
<path d="M99.9532 59.3766L140.792 130.108L144.457 127.992L103.619 57.2601L99.9532 59.3766Z" fill="#E535AB"/>
<path d="M71.0567 80.3418H66.8237V127.517H71.0567V80.3418Z" fill="#E535AB"/>
<path d="M142.049 80.3418H137.816V127.517H142.049V80.3418Z" fill="#E535AB"/>
<path d="M103.486 143.312L105.334 146.514L140.866 125.999L139.017 122.797L103.486 143.312Z" fill="#E535AB"/>
<path d="M147.659 128.894C145.211 133.152 139.754 134.606 135.495 132.158C131.237 129.71 129.783 124.253 132.231 119.994C134.679 115.736 140.136 114.282 144.395 116.73C148.679 119.204 150.132 124.635 147.659 128.894Z" fill="#E535AB"/>
<path d="M76.6158 87.8635C74.1678 92.122 68.7108 93.5755 64.4523 91.1275C60.1938 88.6795 58.7403 83.2225 61.1883 78.964C63.6363 74.7055 69.0933 73.252 73.3518 75.7C77.6103 78.1735 79.0638 83.605 76.6158 87.8635Z" fill="#E535AB"/>
<path d="M61.2137 128.894C58.7657 124.635 60.2192 119.204 64.4777 116.73C68.7362 114.282 74.1677 115.736 76.6412 119.994C79.0892 124.253 77.6357 129.684 73.3772 132.158C69.0932 134.606 63.6617 133.152 61.2137 128.894Z" fill="#E535AB"/>
<path d="M132.257 87.8635C129.809 83.605 131.262 78.1735 135.521 75.7C139.779 73.252 145.211 74.7055 147.684 78.964C150.132 83.2225 148.679 88.654 144.42 91.1275C140.162 93.5755 134.705 92.122 132.257 87.8635Z" fill="#E535AB"/>
<path d="M104.436 153.858C99.5146 153.858 95.5366 149.88 95.5366 144.958C95.5366 140.037 99.5146 136.059 104.436 136.059C109.358 136.059 113.336 140.037 113.336 144.958C113.336 149.854 109.358 153.858 104.436 153.858Z" fill="#E535AB"/>
<path d="M104.436 71.799C99.5146 71.799 95.5366 67.821 95.5366 62.8995C95.5366 57.978 99.5146 54 104.436 54C109.358 54 113.336 57.978 113.336 62.8995C113.336 67.821 109.358 71.799 104.436 71.799Z" fill="#E535AB"/>
</svg>
