<svg width="208" height="208" viewBox="0 0 208 208" fill="none" xmlns="http://www.w3.org/2000/svg">
<path d="M148 60H60V148H148V60Z" fill="#F7DF1E"/>
<path d="M119.114 128.75C120.886 131.644 123.192 133.772 127.271 133.772C130.697 133.772 132.886 132.059 132.886 129.693C132.886 126.857 130.637 125.853 126.866 124.203L124.799 123.316C118.831 120.774 114.867 117.589 114.867 110.857C114.867 104.655 119.593 99.9336 126.978 99.9336C132.235 99.9336 136.015 101.763 138.739 106.555L132.3 110.689C130.882 108.147 129.352 107.145 126.978 107.145C124.556 107.145 123.02 108.682 123.02 110.689C123.02 113.17 124.557 114.174 128.105 115.711L130.172 116.596C137.198 119.609 141.165 122.681 141.165 129.587C141.165 137.032 135.317 141.111 127.462 141.111C119.783 141.111 114.821 137.451 112.393 132.654L119.114 128.75ZM89.9017 129.467C91.2008 131.771 92.3825 133.72 95.2236 133.72C97.9404 133.72 99.6543 132.657 99.6543 128.524V100.406H107.924V128.636C107.924 137.198 102.903 141.095 95.5756 141.095C88.9547 141.095 85.1204 137.669 83.1704 133.542L89.9017 129.467Z" fill="black"/>
<path d="M148 60H60V148H148V60Z" fill="#F7DF1E"/>
<path d="M119.114 128.75C120.886 131.644 123.192 133.772 127.271 133.772C130.697 133.772 132.886 132.059 132.886 129.693C132.886 126.857 130.637 125.853 126.866 124.203L124.799 123.316C118.831 120.774 114.867 117.589 114.867 110.857C114.867 104.655 119.593 99.9336 126.978 99.9336C132.235 99.9336 136.015 101.763 138.739 106.555L132.3 110.689C130.882 108.147 129.352 107.145 126.978 107.145C124.556 107.145 123.02 108.682 123.02 110.689C123.02 113.17 124.557 114.174 128.105 115.711L130.172 116.596C137.198 119.609 141.165 122.681 141.165 129.587C141.165 137.032 135.317 141.111 127.462 141.111C119.783 141.111 114.821 137.451 112.393 132.654L119.114 128.75ZM89.9017 129.467C91.2008 131.771 92.3825 133.72 95.2236 133.72C97.9404 133.72 99.6543 132.657 99.6543 128.524V100.406H107.924V128.636C107.924 137.198 102.903 141.095 95.5756 141.095C88.9547 141.095 85.1204 137.669 83.1704 133.542L89.9017 129.467Z" fill="black"/>
</svg>
