<svg width="208" height="208" viewBox="0 0 208 208" fill="none" xmlns="http://www.w3.org/2000/svg">
<path d="M133.176 90.6054C132.229 90.2811 131.274 89.9809 130.311 89.7048C130.471 89.0577 130.618 88.4078 130.754 87.7552C132.923 77.2521 131.505 68.7908 126.662 66.0055C122.019 63.334 114.426 66.1194 106.757 72.7774C106.002 73.435 105.263 74.1112 104.541 74.8062C104.058 74.3442 103.567 73.8913 103.067 73.4473C95.0295 66.3278 86.9734 63.3279 82.1362 66.1215C77.4978 68.8003 76.1239 76.755 78.0764 86.7088C78.2707 87.6945 78.49 88.6748 78.7343 89.6497C77.5944 89.9727 76.4935 90.317 75.4402 90.6832C66.0177 93.9605 60 99.0974 60 104.425C60 109.928 66.4597 115.448 76.2744 118.794C77.0703 119.064 77.8725 119.314 78.681 119.545C78.4184 120.595 78.1854 121.651 77.9819 122.715C76.1204 132.495 77.5742 140.262 82.2004 142.924C86.9785 145.673 94.998 142.847 102.807 136.037C103.424 135.499 104.043 134.93 104.664 134.329C105.446 135.082 106.248 135.812 107.07 136.519C114.634 143.013 122.105 145.635 126.727 142.966C131.501 140.209 133.052 131.866 131.037 121.715C130.884 120.94 130.706 120.149 130.504 119.342C131.067 119.176 131.619 119.004 132.159 118.826C142.362 115.454 149 110.002 149 104.425C149 99.0781 142.788 93.9067 133.176 90.6054ZM109.253 75.639C115.824 69.9339 121.965 67.6816 124.763 69.2915C127.743 71.0064 128.903 77.9214 127.03 86.9898C126.907 87.5805 126.774 88.1689 126.63 88.755C122.709 87.8685 118.734 87.2419 114.73 86.8794C112.436 83.5917 109.923 80.4621 107.207 77.5119C107.873 76.8708 108.556 76.2465 109.253 75.639ZM86.2786 108.976C87.0835 110.527 87.9246 112.059 88.8019 113.571C89.6968 115.113 90.6282 116.633 91.5961 118.131C88.8413 117.833 86.1036 117.394 83.3939 116.815C84.1796 114.284 85.1478 111.653 86.2786 108.976ZM86.2743 100.055C85.1671 97.4355 84.2199 94.8597 83.4463 92.3722C85.9856 91.8052 88.6934 91.3419 91.5149 90.9901C90.5705 92.4597 89.661 93.9509 88.7865 95.4636C87.9134 96.9744 87.076 98.505 86.2743 100.055ZM88.2953 104.516C89.4668 102.084 90.7287 99.6977 92.0809 97.3581V97.3589C93.4319 95.0205 94.8704 92.7358 96.3963 90.5048C99.0431 90.3052 101.757 90.2006 104.5 90.2006C107.256 90.2006 109.973 90.306 112.62 90.5072C114.129 92.7331 115.558 95.01 116.908 97.338C118.264 99.6707 119.543 102.046 120.744 104.462C119.556 106.903 118.281 109.299 116.92 111.65H116.92C115.572 113.986 114.148 116.277 112.65 118.523C110.01 118.711 107.281 118.808 104.5 118.808C101.731 118.808 99.0364 118.722 96.442 118.554C94.9056 116.315 93.4558 114.021 92.0924 111.671C90.7364 109.335 89.4707 106.95 88.2953 104.516H88.2953ZM120.214 113.545C121.109 111.996 121.969 110.428 122.795 108.84C123.926 111.39 124.923 113.997 125.783 116.651C123.042 117.265 120.271 117.737 117.481 118.063C118.422 116.575 119.333 115.069 120.214 113.545H120.214ZM122.758 100.058C121.936 98.501 121.083 96.9609 120.198 95.4377C119.328 93.9383 118.426 92.4582 117.492 90.9972C120.332 91.3548 123.052 91.8303 125.607 92.4123C124.787 95.007 123.836 97.5589 122.758 100.058H122.758ZM104.543 80.2245C106.394 82.2378 108.142 84.3431 109.78 86.5324C106.276 86.3672 102.769 86.3664 99.261 86.53C100.99 84.2551 102.761 82.1418 104.543 80.2245ZM84.041 69.4043C87.0187 67.6847 93.6025 70.1367 100.542 76.2838C100.985 76.6767 101.431 77.0881 101.877 77.5137C99.1455 80.4634 96.6128 83.5904 94.2957 86.8742C90.3013 87.2317 86.3342 87.8468 82.4194 88.7157C82.1924 87.8091 81.9885 86.8971 81.8077 85.9799V85.9803C80.1349 77.4518 81.2456 71.0187 84.041 69.4043ZM79.7012 115.891C78.9634 115.68 78.231 115.452 77.5041 115.205C73.7351 114.022 70.2164 112.157 67.1239 109.703C66.2378 109.097 65.4859 108.316 64.9145 107.408C64.3432 106.5 63.9645 105.485 63.8019 104.425C63.8019 101.192 68.6336 97.0681 76.6921 94.2651C77.7035 93.9148 78.7246 93.5942 79.7553 93.3035C80.9518 97.1328 82.4009 100.879 84.0931 104.517C82.3797 108.208 80.9125 112.007 79.7012 115.891ZM100.305 133.181C97.395 135.848 94.0178 137.957 90.3423 139.404H90.3419C89.3728 139.866 88.3189 140.126 87.2453 140.166C86.1717 140.206 85.1013 140.027 84.1001 139.638C81.2925 138.023 80.1258 131.786 81.7175 123.422C81.9067 122.434 82.1234 121.451 82.3676 120.474C86.3216 121.322 90.3287 121.9 94.3613 122.206C96.6984 125.509 99.2505 128.655 102.001 131.623C101.448 132.156 100.883 132.676 100.305 133.181ZM104.648 128.894C102.846 126.954 101.048 124.808 99.2929 122.5C100.997 122.567 102.733 122.601 104.5 122.601C106.314 122.601 108.105 122.561 109.873 122.482C108.242 124.707 106.498 126.847 104.648 128.894V128.894ZM127.736 134.171C127.653 135.24 127.352 136.28 126.851 137.229C126.35 138.177 125.659 139.012 124.822 139.683C122.017 141.303 116.018 139.198 109.55 133.644C108.808 133.008 108.062 132.329 107.312 131.609C110.009 128.63 112.502 125.472 114.772 122.158C118.828 121.817 122.856 121.197 126.826 120.304C127.007 121.035 127.168 121.751 127.308 122.452C128.17 126.299 128.315 130.272 127.736 134.171V134.171ZM130.963 115.226H130.963C130.477 115.387 129.977 115.542 129.468 115.692C128.224 111.845 126.718 108.087 124.961 104.444C126.651 100.85 128.099 97.1464 129.293 93.3592C130.203 93.6225 131.087 93.8997 131.939 94.1923C140.175 97.0204 145.198 101.203 145.198 104.425C145.198 107.858 139.773 112.314 130.963 115.226V115.226Z" fill="#61DAFB"/>
<path d="M104.5 96.4961C106.072 96.4961 107.609 96.9611 108.916 97.8323C110.223 98.7035 111.241 99.9419 111.843 101.391C112.444 102.84 112.602 104.434 112.295 105.972C111.988 107.51 111.232 108.923 110.12 110.032C109.009 111.141 107.592 111.896 106.051 112.202C104.509 112.508 102.911 112.351 101.459 111.751C100.007 111.15 98.7653 110.134 97.8921 108.83C97.0188 107.526 96.5527 105.993 96.5527 104.425C96.5527 102.322 97.39 100.305 98.8805 98.8184C100.371 97.3314 102.392 96.4961 104.5 96.4961Z" fill="#61DAFB"/>
<path d="M133.176 90.6054C132.229 90.2811 131.274 89.9809 130.311 89.7048C130.471 89.0577 130.618 88.4078 130.754 87.7552C132.923 77.2521 131.505 68.7908 126.662 66.0055C122.019 63.334 114.426 66.1194 106.757 72.7774C106.002 73.435 105.263 74.1112 104.541 74.8062C104.058 74.3442 103.567 73.8913 103.067 73.4473C95.0295 66.3278 86.9734 63.3279 82.1362 66.1215C77.4978 68.8003 76.1239 76.755 78.0764 86.7088C78.2707 87.6945 78.49 88.6748 78.7343 89.6497C77.5944 89.9727 76.4935 90.317 75.4402 90.6832C66.0177 93.9605 60 99.0974 60 104.425C60 109.928 66.4597 115.448 76.2744 118.794C77.0703 119.064 77.8725 119.314 78.681 119.545C78.4184 120.595 78.1854 121.651 77.9819 122.715C76.1204 132.495 77.5742 140.262 82.2004 142.924C86.9785 145.673 94.998 142.847 102.807 136.037C103.424 135.499 104.043 134.93 104.664 134.329C105.446 135.082 106.248 135.812 107.07 136.519C114.634 143.013 122.105 145.635 126.727 142.966C131.501 140.209 133.052 131.866 131.037 121.715C130.884 120.94 130.706 120.149 130.504 119.342C131.067 119.176 131.619 119.004 132.159 118.826C142.362 115.454 149 110.002 149 104.425C149 99.0781 142.788 93.9067 133.176 90.6054ZM109.253 75.639C115.824 69.9339 121.965 67.6816 124.763 69.2915C127.743 71.0064 128.903 77.9214 127.03 86.9898C126.907 87.5805 126.774 88.1689 126.63 88.755C122.709 87.8685 118.734 87.2419 114.73 86.8794C112.436 83.5917 109.923 80.4621 107.207 77.5119C107.873 76.8708 108.556 76.2465 109.253 75.639ZM86.2786 108.976C87.0835 110.527 87.9246 112.059 88.8019 113.571C89.6968 115.113 90.6282 116.633 91.5961 118.131C88.8413 117.833 86.1036 117.394 83.3939 116.815C84.1796 114.284 85.1478 111.653 86.2786 108.976ZM86.2743 100.055C85.1671 97.4355 84.2199 94.8597 83.4463 92.3722C85.9856 91.8052 88.6934 91.3419 91.5149 90.9901C90.5705 92.4597 89.661 93.9509 88.7865 95.4636C87.9134 96.9744 87.076 98.505 86.2743 100.055ZM88.2953 104.516C89.4668 102.084 90.7287 99.6977 92.0809 97.3581V97.3589C93.4319 95.0205 94.8704 92.7358 96.3963 90.5048C99.0431 90.3052 101.757 90.2006 104.5 90.2006C107.256 90.2006 109.973 90.306 112.62 90.5072C114.129 92.7331 115.558 95.01 116.908 97.338C118.264 99.6707 119.543 102.046 120.744 104.462C119.556 106.903 118.281 109.299 116.92 111.65H116.92C115.572 113.986 114.148 116.277 112.65 118.523C110.01 118.711 107.281 118.808 104.5 118.808C101.731 118.808 99.0364 118.722 96.442 118.554C94.9056 116.315 93.4558 114.021 92.0924 111.671C90.7364 109.335 89.4707 106.95 88.2953 104.516H88.2953ZM120.214 113.545C121.109 111.996 121.969 110.428 122.795 108.84C123.926 111.39 124.923 113.997 125.783 116.651C123.042 117.265 120.271 117.737 117.481 118.063C118.422 116.575 119.333 115.069 120.214 113.545H120.214ZM122.758 100.058C121.936 98.501 121.083 96.9609 120.198 95.4377C119.328 93.9383 118.426 92.4582 117.492 90.9972C120.332 91.3548 123.052 91.8303 125.607 92.4123C124.787 95.007 123.836 97.5589 122.758 100.058H122.758ZM104.543 80.2245C106.394 82.2378 108.142 84.3431 109.78 86.5324C106.276 86.3672 102.769 86.3664 99.261 86.53C100.99 84.2551 102.761 82.1418 104.543 80.2245ZM84.041 69.4043C87.0187 67.6847 93.6025 70.1367 100.542 76.2838C100.985 76.6767 101.431 77.0881 101.877 77.5137C99.1455 80.4634 96.6128 83.5904 94.2957 86.8742C90.3013 87.2317 86.3342 87.8468 82.4194 88.7157C82.1924 87.8091 81.9885 86.8971 81.8077 85.9799V85.9803C80.1349 77.4518 81.2456 71.0187 84.041 69.4043ZM79.7012 115.891C78.9634 115.68 78.231 115.452 77.5041 115.205C73.7351 114.022 70.2164 112.157 67.1239 109.703C66.2378 109.097 65.4859 108.316 64.9145 107.408C64.3432 106.5 63.9645 105.485 63.8019 104.425C63.8019 101.192 68.6336 97.0681 76.6921 94.2651C77.7035 93.9148 78.7246 93.5942 79.7553 93.3035C80.9518 97.1328 82.4009 100.879 84.0931 104.517C82.3797 108.208 80.9125 112.007 79.7012 115.891ZM100.305 133.181C97.395 135.848 94.0178 137.957 90.3423 139.404H90.3419C89.3728 139.866 88.3189 140.126 87.2453 140.166C86.1717 140.206 85.1013 140.027 84.1001 139.638C81.2925 138.023 80.1258 131.786 81.7175 123.422C81.9067 122.434 82.1234 121.451 82.3676 120.474C86.3216 121.322 90.3287 121.9 94.3613 122.206C96.6984 125.509 99.2505 128.655 102.001 131.623C101.448 132.156 100.883 132.676 100.305 133.181ZM104.648 128.894C102.846 126.954 101.048 124.808 99.2929 122.5C100.997 122.567 102.733 122.601 104.5 122.601C106.314 122.601 108.105 122.561 109.873 122.482C108.242 124.707 106.498 126.847 104.648 128.894V128.894ZM127.736 134.171C127.653 135.24 127.352 136.28 126.851 137.229C126.35 138.177 125.659 139.012 124.822 139.683C122.017 141.303 116.018 139.198 109.55 133.644C108.808 133.008 108.062 132.329 107.312 131.609C110.009 128.63 112.502 125.472 114.772 122.158C118.828 121.817 122.856 121.197 126.826 120.304C127.007 121.035 127.168 121.751 127.308 122.452C128.17 126.299 128.315 130.272 127.736 134.171V134.171ZM130.963 115.226H130.963C130.477 115.387 129.977 115.542 129.468 115.692C128.224 111.845 126.718 108.087 124.961 104.444C126.651 100.85 128.099 97.1464 129.293 93.3592C130.203 93.6225 131.087 93.8997 131.939 94.1923C140.175 97.0204 145.198 101.203 145.198 104.425C145.198 107.858 139.773 112.314 130.963 115.226V115.226Z" fill="#61DAFB"/>
<path d="M104.5 96.4961C106.072 96.4961 107.609 96.9611 108.916 97.8323C110.223 98.7035 111.241 99.9419 111.843 101.391C112.444 102.84 112.602 104.434 112.295 105.972C111.988 107.51 111.232 108.923 110.12 110.032C109.009 111.141 107.592 111.896 106.051 112.202C104.509 112.508 102.911 112.351 101.459 111.751C100.007 111.15 98.7653 110.134 97.8921 108.83C97.0188 107.526 96.5527 105.993 96.5527 104.425C96.5527 102.322 97.39 100.305 98.8805 98.8184C100.371 97.3314 102.392 96.4961 104.5 96.4961Z" fill="#61DAFB"/>
</svg>
