<svg width="208" height="208" viewBox="0 0 208 208" fill="none" xmlns="http://www.w3.org/2000/svg">
<path d="M136.862 57C140.877 57 144.727 58.5949 147.566 61.4337C150.405 64.2726 152 68.123 152 72.1377V136.862C152 140.877 150.405 144.727 147.566 147.566C144.727 150.405 140.877 152 136.862 152H72.1377C68.1232 151.999 64.2733 150.404 61.4345 147.565C58.5958 144.727 57.0007 140.877 57 136.862V72.1377C57 68.123 58.5949 64.2726 61.4337 61.4337C64.2726 58.5949 68.123 57 72.1377 57H136.862Z" fill="#FFFC00"/>
<path d="M136.529 120.786C136.259 119.86 134.905 119.205 134.905 119.205L134.572 119.032C132.447 118.021 130.469 116.724 128.694 115.178C127.395 114.038 126.249 112.734 125.286 111.299C124.472 110.108 123.838 108.803 123.405 107.426C123.278 106.926 123.3 106.725 123.405 106.465C123.519 106.257 123.678 106.077 123.871 105.938C124.623 105.396 125.838 104.617 126.577 104.138C127.224 103.718 127.776 103.358 128.104 103.131C129.151 102.397 129.871 101.65 130.291 100.844C130.561 100.338 130.717 99.7802 130.75 99.2081C130.782 98.6359 130.689 98.0636 130.477 97.5311C129.904 96.01 128.485 95.0952 126.688 95.0952C126.276 95.0972 125.865 95.1416 125.462 95.2278C124.497 95.4624 123.551 95.7719 122.634 96.1534C122.62 96.1599 122.605 96.1625 122.59 96.1611C122.575 96.1597 122.561 96.1543 122.549 96.1454C122.536 96.1366 122.527 96.1246 122.521 96.1108C122.515 96.0969 122.513 96.0818 122.515 96.0668C122.657 93.6154 122.643 91.1574 122.474 88.7077C122.339 86.6211 121.843 84.5736 121.01 82.6558C119.543 79.5901 117.172 77.0473 114.216 75.3698C111.24 73.7469 107.904 72.8965 104.513 72.8965C101.123 72.8965 97.787 73.7469 94.8104 75.3698C91.8432 77.0412 89.462 79.5849 87.9899 82.6558C87.1498 84.5718 86.6515 86.62 86.5175 88.7077C86.3448 91.1573 86.3312 93.6155 86.4769 96.0668C86.4779 96.0823 86.4749 96.0978 86.4681 96.1118C86.4613 96.1258 86.4509 96.1377 86.4381 96.1465C86.4252 96.1552 86.4103 96.1605 86.3948 96.1617C86.3793 96.1629 86.3638 96.1601 86.3497 96.1534C85.4302 95.7763 84.4828 95.4713 83.516 95.2413C83.113 95.1544 82.7021 95.11 82.2899 95.1087C80.49 95.1087 79.0691 96.0154 78.5007 97.5446C78.2891 98.0772 78.1962 98.6495 78.2284 99.2216C78.2607 99.7938 78.4173 100.352 78.6875 100.857C79.1151 101.669 79.8269 102.411 80.8744 103.144C81.1937 103.372 81.754 103.732 82.4009 104.151C83.1262 104.625 84.2954 105.391 85.0668 105.919C85.2813 106.061 85.4579 106.253 85.5811 106.479C85.6866 106.75 85.7083 106.944 85.5811 107.478C85.1483 108.839 84.5191 110.13 83.7135 111.31C82.7524 112.747 81.6067 114.051 80.306 115.189C78.531 116.735 76.5532 118.032 74.4274 119.043C74.3218 119.097 74.1946 119.156 74.062 119.235C74.062 119.235 72.7276 119.914 72.4759 120.794C72.1024 122.093 73.0957 123.314 74.0999 123.966C75.7536 125.032 77.7672 125.606 78.9338 125.92C79.2613 126.007 79.5536 126.088 79.8215 126.166C80.1104 126.248 80.374 126.402 80.5875 126.613C80.8148 126.905 80.8419 127.265 80.9204 127.674C80.9759 128.094 81.116 128.498 81.3324 128.863C81.5487 129.227 81.8367 129.543 82.1789 129.793C83.1127 130.432 84.2927 130.481 85.7922 130.54C87.3593 130.6 89.3107 130.673 91.5382 131.414C92.5721 131.755 93.5113 132.335 94.5912 133C96.8566 134.394 99.6768 136.127 104.489 136.127C109.301 136.127 112.149 134.386 114.428 132.987C115.51 132.327 116.433 131.753 117.448 131.42C119.681 130.681 121.627 130.608 123.194 130.546C124.693 130.486 125.874 130.445 126.807 129.799C127.741 129.152 127.974 128.24 128.093 127.539C128.119 127.214 128.224 126.901 128.399 126.627C128.605 126.423 128.859 126.274 129.138 126.193C129.408 126.107 129.717 126.026 130.058 125.923C131.599 125.567 133.084 125 134.47 124.237C136.616 123.016 136.762 121.53 136.537 120.783L136.529 120.786Z" fill="white"/>
<path d="M138.383 120.065C137.91 118.772 137.003 118.087 135.977 117.513C135.809 117.414 135.635 117.324 135.457 117.242C135.152 117.083 134.838 116.929 134.524 116.769C131.316 115.069 128.81 112.923 127.078 110.384C126.586 109.668 126.158 108.91 125.798 108.119C125.652 107.691 125.657 107.453 125.765 107.231C125.871 107.061 126.012 106.915 126.179 106.803C126.721 106.438 127.3 106.07 127.687 105.824C128.374 105.377 128.921 105.012 129.268 104.784C130.588 103.864 131.509 102.89 132.08 101.791C132.481 101.034 132.714 100.2 132.764 99.3456C132.813 98.4908 132.678 97.6355 132.367 96.8378C131.5 94.5454 129.327 93.119 126.702 93.119C126.148 93.1192 125.597 93.179 125.056 93.2976L124.629 93.3978C124.659 91.7786 124.608 90.1589 124.474 88.5449C123.982 82.8124 121.973 79.8055 119.873 77.4129C118.535 75.9086 116.957 74.6357 115.204 73.6454C111.925 71.8458 108.246 70.9023 104.505 70.9023C100.765 70.9023 97.0852 71.8458 93.8063 73.6454C92.0478 74.6323 90.4662 75.9056 89.1267 77.4129C87.0345 79.8055 85.0263 82.8124 84.5255 88.5449C84.3848 90.1689 84.3523 91.8388 84.3713 93.3978L83.9436 93.2976C83.4031 93.1794 82.8514 93.1195 82.2981 93.119C79.6727 93.119 77.4993 94.5454 76.6332 96.8378C76.3222 97.6355 76.1867 98.4908 76.2363 99.3456C76.2858 100.2 76.519 101.034 76.9201 101.791C77.4939 102.873 78.4196 103.864 79.7322 104.784C80.0868 105.031 80.6254 105.385 81.3129 105.824C81.6864 106.064 82.225 106.416 82.7582 106.771C82.9435 106.893 83.1019 107.051 83.2237 107.236C83.3374 107.464 83.3374 107.71 83.1696 108.162C82.8151 108.937 82.394 109.679 81.911 110.381C80.2113 112.869 77.7781 114.983 74.6791 116.655C73.0335 117.529 71.3257 118.109 70.6193 120.068C70.078 121.549 70.4325 123.235 71.8129 124.653C72.3216 125.182 72.9108 125.628 73.5586 125.974C74.9058 126.714 76.3382 127.288 77.8241 127.682C78.1314 127.76 78.4226 127.891 78.6848 128.069C79.1909 128.51 79.1179 129.176 79.7918 130.147C80.127 130.651 80.5539 131.087 81.0503 131.433C82.4577 132.407 84.0438 132.467 85.7246 132.532C87.2375 132.591 88.9589 132.659 90.9184 133.306C91.7304 133.577 92.5775 134.093 93.5519 134.692C95.8985 136.137 99.1193 138.11 104.497 138.11C109.875 138.11 113.118 136.123 115.483 134.678C116.457 134.085 117.296 133.566 118.084 133.306C120.044 132.659 121.765 132.591 123.278 132.532C124.959 132.464 126.526 132.405 127.952 131.433C128.541 131.022 129.032 130.487 129.392 129.866C129.871 129.054 129.866 128.467 130.318 128.071C130.566 127.906 130.841 127.782 131.13 127.706C132.639 127.311 134.093 126.731 135.46 125.979C136.147 125.618 136.767 125.142 137.293 124.572L137.311 124.553C138.597 123.154 138.935 121.519 138.394 120.074L138.383 120.065ZM133.603 122.634C130.683 124.258 128.732 124.074 127.238 125.04C125.957 125.866 126.71 127.646 125.784 128.288C124.637 129.081 121.259 128.234 116.891 129.674C113.291 130.867 110.99 134.275 104.505 134.275C98.0204 134.275 95.774 130.867 92.1201 129.674C87.7545 128.234 84.3686 129.081 83.2264 128.288C82.3008 127.649 83.0532 125.868 81.773 125.04C80.2654 124.066 78.3275 124.228 75.4072 122.634C73.5478 121.608 74.5952 120.975 75.2204 120.674C85.7922 115.562 87.473 107.656 87.5515 107.063C87.6435 106.357 87.7436 105.796 86.9642 105.071C86.1847 104.346 82.8583 102.297 81.93 101.653C80.3899 100.57 79.716 99.5065 80.2167 98.1857C80.5632 97.2736 81.4157 96.9325 82.317 96.9325C82.5992 96.9332 82.8804 96.964 83.156 97.0246C84.8422 97.3899 86.4824 98.2371 87.4297 98.4644C87.5428 98.4939 87.6592 98.5094 87.7761 98.5104C88.2822 98.5104 88.4555 98.256 88.423 97.6768C88.3174 95.831 88.0495 92.2312 88.3418 88.8643C88.7424 84.2388 90.2364 81.9436 92.0092 79.911C92.8617 78.9367 96.862 74.7117 104.508 74.7117C112.154 74.7117 116.146 78.9367 117.007 79.911C118.78 81.9382 120.274 84.2415 120.674 88.8643C120.967 92.2312 120.715 95.831 120.593 97.6768C120.552 98.2831 120.739 98.5104 121.24 98.5104C121.357 98.5098 121.473 98.4944 121.586 98.4644C122.534 98.2371 124.174 97.3818 125.86 97.0246C126.133 96.9608 126.413 96.9263 126.694 96.9217C127.592 96.9217 128.447 97.2681 128.794 98.1748C129.295 99.4956 128.615 100.567 127.081 101.642C126.155 102.289 122.802 104.348 122.046 105.06C121.291 105.772 121.367 106.341 121.459 107.052C121.532 107.645 123.218 115.551 133.79 120.664C134.405 120.972 135.463 121.605 133.603 122.634Z" fill="black"/>
</svg>
