<svg width="208" height="208" viewBox="0 0 208 208" fill="none" xmlns="http://www.w3.org/2000/svg">
<path d="M104.5 59C95.501 59 86.704 61.6685 79.2216 66.6681C71.7391 71.6677 65.9073 78.7739 62.4635 87.0879C59.0197 95.4019 58.1187 104.55 59.8743 113.377C61.6299 122.203 65.9634 130.31 72.3267 136.673C78.69 143.037 86.7973 147.37 95.6234 149.126C104.45 150.881 113.598 149.98 121.912 146.537C130.226 143.093 137.332 137.261 142.332 129.778C147.331 122.296 150 113.499 150 104.5C150 92.4326 145.206 80.8595 136.673 72.3266C128.14 63.7937 116.567 59 104.5 59V59ZM125.367 124.63C124.976 125.271 124.346 125.731 123.616 125.908C122.886 126.086 122.115 125.966 121.473 125.577C110.785 119.042 97.3384 117.608 81.501 121.194C81.131 121.298 80.7438 121.325 80.3629 121.274C79.982 121.224 79.6152 121.097 79.285 120.9C78.9547 120.704 78.6678 120.442 78.4415 120.132C78.2152 119.821 78.0544 119.468 77.9687 119.093C77.8829 118.719 77.8742 118.331 77.9429 117.953C78.0115 117.575 78.1563 117.215 78.3683 116.894C78.5803 116.574 78.8551 116.299 79.1762 116.088C79.4972 115.877 79.8578 115.734 80.236 115.666C97.5675 111.682 112.439 113.405 124.431 120.736C125.07 121.129 125.528 121.76 125.703 122.49C125.879 123.22 125.758 123.989 125.367 124.63V124.63ZM130.935 112.239C130.692 112.637 130.372 112.982 129.995 113.255C129.617 113.529 129.19 113.726 128.737 113.834C128.283 113.942 127.813 113.96 127.353 113.886C126.893 113.813 126.452 113.649 126.055 113.405C113.823 105.885 95.1769 103.713 80.7141 108.106C80.2649 108.255 79.7904 108.313 79.3185 108.276C78.8467 108.239 78.387 108.108 77.9666 107.89C77.5462 107.673 77.1737 107.373 76.8708 107.009C76.568 106.645 76.3411 106.225 76.2034 105.772C76.0658 105.319 76.0202 104.843 76.0693 104.372C76.1185 103.902 76.2614 103.445 76.4896 103.031C76.7178 102.616 77.0268 102.251 77.3982 101.958C77.7696 101.665 78.196 101.449 78.6523 101.323C95.1769 96.3423 115.726 98.7328 129.76 107.369C130.561 107.859 131.135 108.648 131.355 109.561C131.576 110.474 131.425 111.437 130.935 112.239V112.239ZM131.414 99.2906C116.752 90.585 92.5672 89.7782 78.5527 94.0314C78.0177 94.1936 77.456 94.2488 76.8996 94.194C76.3433 94.1391 75.8032 93.9752 75.3102 93.7116C74.8172 93.448 74.381 93.0898 74.0264 92.6576C73.6718 92.2254 73.4059 91.7276 73.2437 91.1927C73.0815 90.6577 73.0263 90.096 73.0811 89.5396C73.136 88.9833 73.2999 88.4432 73.5635 87.9502C73.8271 87.4572 74.1852 87.021 74.6174 86.6664C75.0496 86.3118 75.5475 86.0458 76.0824 85.8836C92.1588 81.0029 118.913 81.8994 135.756 91.9696C136.237 92.2547 136.657 92.6318 136.992 93.0792C137.327 93.5266 137.57 94.0356 137.709 94.5771C137.847 95.1187 137.877 95.6821 137.798 96.2354C137.718 96.7886 137.531 97.3208 137.245 97.8015C136.96 98.2822 136.583 98.702 136.136 99.037C135.688 99.372 135.179 99.6156 134.638 99.7539C134.096 99.8922 133.533 99.9224 132.98 99.8429C132.426 99.7634 131.894 99.5757 131.414 99.2906V99.2906Z" fill="#1ED760"/>
</svg>
