<svg width="208" height="208" viewBox="0 0 208 208" fill="none" xmlns="http://www.w3.org/2000/svg">
<path fill-rule="evenodd" clip-rule="evenodd" d="M118.195 150.646C121.552 150.646 124.271 147.949 124.271 144.62C124.271 141.29 121.552 138.594 118.195 138.594H117.282C120.639 138.594 123.357 141.29 123.357 144.62C123.357 147.949 120.639 150.646 117.282 150.646H118.195Z" fill="#EE1D51"/>
<path fill-rule="evenodd" clip-rule="evenodd" d="M117.2 138.588H116.286C112.929 138.588 110.21 141.284 110.21 144.614C110.21 147.943 112.929 150.64 116.286 150.64H117.2C113.843 150.64 111.124 147.943 111.124 144.614C111.118 141.29 113.843 138.588 117.2 138.588Z" fill="#66C8CF"/>
<path fill-rule="evenodd" clip-rule="evenodd" d="M71 135.863V138.918H74.5771V150.557H78.1597V139H81.0709L82.0724 135.863H71ZM100.299 135.863V138.918H103.876V150.557H107.459V139H110.37L111.371 135.863H100.299ZM82.7383 137.597C82.7383 136.639 83.5198 135.863 84.4828 135.863C85.4514 135.863 86.2329 136.639 86.2329 137.597C86.2329 138.554 85.4514 139.33 84.4828 139.33C83.5198 139.33 82.7383 138.554 82.7383 137.597ZM82.7383 140.574H86.2329V150.562H82.7383V140.574ZM87.7297 135.863V150.562H91.2243V146.765L92.3084 145.775L95.7204 150.645H99.4681L94.5537 143.546L98.9673 139.253H94.7243L91.2298 142.72V135.869H87.7297V135.863ZM125.438 135.863V150.562H128.932V146.765L130.016 145.775L133.428 150.645H137.176L132.262 143.546L136.675 139.253H132.432L128.938 142.72V135.869H125.438V135.863Z" fill="white"/>
<path fill-rule="evenodd" clip-rule="evenodd" d="M120.044 84.9932C124.871 88.4437 130.787 90.4744 137.176 90.4744V78.1858C135.965 78.1858 134.76 78.0592 133.577 77.8116V87.4862C127.188 87.4862 121.277 85.4555 116.445 82.005V107.078C116.445 119.619 106.27 129.789 93.7227 129.789C89.0394 129.789 84.6864 128.375 81.0708 125.948C85.1982 130.164 90.9491 132.783 97.3163 132.783C109.869 132.783 120.039 122.613 120.039 110.071L120.044 84.9932ZM124.48 72.5945C122.015 69.898 120.391 66.4199 120.044 62.5677V60.9883H116.632C117.491 65.8806 120.419 70.0631 124.48 72.5945ZM89.0119 116.317C87.6361 114.512 86.8877 112.3 86.8932 110.027C86.8932 104.293 91.5489 99.6373 97.2887 99.6373C98.3564 99.6373 99.424 99.8024 100.442 100.122V87.5687C99.2479 87.4036 98.0482 87.3376 96.843 87.3596V97.1388C95.8249 96.8141 94.7573 96.649 93.6896 96.6545C87.9498 96.6545 83.2941 101.305 83.2941 107.045C83.2941 111.095 85.6164 114.611 89.0119 116.317Z" fill="#EE1D52"/>
<path fill-rule="evenodd" clip-rule="evenodd" d="M116.446 81.9995C121.277 85.45 127.188 87.4807 133.577 87.4807V77.8061C130.011 77.0466 126.852 75.1865 124.48 72.5945C120.419 70.0631 117.491 65.8806 116.633 60.9883H107.679V110.066C107.657 115.789 103.012 120.417 97.2834 120.417C93.91 120.417 90.9107 118.81 89.0066 116.317C85.6167 114.606 83.2888 111.095 83.2888 107.039C83.2888 101.299 87.9445 96.649 93.6844 96.649C94.785 96.649 95.8416 96.8196 96.8377 97.1333V87.3596C84.5105 87.6128 74.5938 97.6836 74.5938 110.066C74.5938 116.246 77.0647 121.854 81.071 125.943C84.6866 128.369 89.0396 129.784 93.7229 129.784C106.27 129.784 116.446 119.614 116.446 107.072V81.9995Z" fill="white"/>
<path fill-rule="evenodd" clip-rule="evenodd" d="M133.577 77.806V75.192C130.363 75.1975 127.21 74.295 124.48 72.5945C126.896 75.236 130.077 77.0631 133.577 77.806ZM116.633 60.9882C116.55 60.5205 116.489 60.0527 116.445 59.5794V58H104.08V107.078C104.058 112.801 99.413 117.429 93.6842 117.429C92.0002 117.429 90.4153 117.033 89.0065 116.323C90.9051 118.816 93.9043 120.423 97.2833 120.423C103.012 120.423 107.657 115.789 107.679 110.071V60.9882H116.633ZM96.843 87.3596V84.575C95.8084 84.4319 94.7683 84.3658 93.7227 84.3658C81.1699 84.3658 71 94.5358 71 107.078C71 114.942 75.0008 121.87 81.0764 125.948C77.07 121.854 74.5991 116.251 74.5991 110.071C74.5991 97.6836 84.5104 87.6127 96.843 87.3596Z" fill="#69C9D0"/>
<path fill-rule="evenodd" clip-rule="evenodd" d="M117.282 150.646C120.639 150.646 123.357 147.949 123.357 144.62C123.357 141.29 120.639 138.594 117.282 138.594H117.199C113.842 138.594 111.124 141.29 111.124 144.62C111.124 147.949 113.842 150.646 117.199 150.646H117.282ZM114.282 144.62C114.282 143.002 115.609 141.687 117.238 141.687C118.867 141.687 120.193 142.996 120.193 144.62C120.193 146.238 118.872 147.553 117.238 147.553C115.609 147.547 114.282 146.238 114.282 144.62Z" fill="white"/>
</svg>
