<svg width="208" height="208" viewBox="0 0 208 208" fill="none" xmlns="http://www.w3.org/2000/svg">
<path d="M103.851 97.2607C98.8587 97.2607 95.2533 100.528 95.2533 105.418C95.2533 110.309 99.3067 113.576 104.299 113.576C107.328 113.576 109.973 112.38 111.637 110.373L108.181 108.365C107.264 109.369 105.877 109.946 104.32 109.946C102.144 109.946 100.309 108.814 99.6267 106.999H112.32C112.427 106.486 112.469 105.973 112.469 105.418C112.448 100.507 108.864 97.2607 103.851 97.2607ZM99.5627 103.817C100.139 102.001 101.675 100.87 103.851 100.87C106.027 100.87 107.563 102.001 108.139 103.817H99.5627ZM152.597 97.2607C147.605 97.2607 144 100.528 144 105.418C144 110.309 148.053 113.576 153.045 113.576C156.075 113.576 158.72 112.38 160.384 110.373L156.928 108.365C156.011 109.369 154.624 109.946 153.067 109.946C150.891 109.946 149.056 108.814 148.373 106.999H161.067C161.173 106.486 161.216 105.973 161.216 105.418C161.216 100.507 157.611 97.2607 152.597 97.2607ZM148.331 103.817C148.907 102.001 150.443 100.87 152.619 100.87C154.795 100.87 156.331 102.001 156.907 103.817H148.331ZM130.667 105.418C130.667 108.13 132.437 109.946 135.189 109.946C137.045 109.946 138.453 109.091 139.179 107.725L142.656 109.732C141.227 112.124 138.517 113.576 135.189 113.576C130.176 113.576 126.592 110.309 126.592 105.418C126.592 100.528 130.197 97.2607 135.189 97.2607C138.517 97.2607 141.205 98.7128 142.656 101.105L139.179 103.112C138.453 101.724 137.067 100.891 135.189 100.891C132.437 100.87 130.667 102.685 130.667 105.418ZM168 92.2636V113.106H163.925V92.2636H168ZM56.7253 90L73.4507 119H40L56.7253 90ZM98.56 92.2636L86.016 114.024L73.472 92.2636H78.1867L86.0373 105.867L93.888 92.2636H98.56ZM125.227 97.7091V102.108C124.779 101.98 124.288 101.895 123.776 101.895C121.152 101.895 119.253 103.71 119.253 106.422V113.127H115.179V97.7091H119.253V101.873C119.253 99.567 121.92 97.7091 125.227 97.7091Z" fill="#F9F9FD"/>
<path d="M103.851 97.2607C98.8587 97.2607 95.2533 100.528 95.2533 105.418C95.2533 110.309 99.3067 113.576 104.299 113.576C107.328 113.576 109.973 112.38 111.637 110.373L108.181 108.365C107.264 109.369 105.877 109.946 104.32 109.946C102.144 109.946 100.309 108.814 99.6267 106.999H112.32C112.427 106.486 112.469 105.973 112.469 105.418C112.448 100.507 108.864 97.2607 103.851 97.2607ZM99.5627 103.817C100.139 102.001 101.675 100.87 103.851 100.87C106.027 100.87 107.563 102.001 108.139 103.817H99.5627ZM152.597 97.2607C147.605 97.2607 144 100.528 144 105.418C144 110.309 148.053 113.576 153.045 113.576C156.075 113.576 158.72 112.38 160.384 110.373L156.928 108.365C156.011 109.369 154.624 109.946 153.067 109.946C150.891 109.946 149.056 108.814 148.373 106.999H161.067C161.173 106.486 161.216 105.973 161.216 105.418C161.216 100.507 157.611 97.2607 152.597 97.2607ZM148.331 103.817C148.907 102.001 150.443 100.87 152.619 100.87C154.795 100.87 156.331 102.001 156.907 103.817H148.331ZM130.667 105.418C130.667 108.13 132.437 109.946 135.189 109.946C137.045 109.946 138.453 109.091 139.179 107.725L142.656 109.732C141.227 112.124 138.517 113.576 135.189 113.576C130.176 113.576 126.592 110.309 126.592 105.418C126.592 100.528 130.197 97.2607 135.189 97.2607C138.517 97.2607 141.205 98.7128 142.656 101.105L139.179 103.112C138.453 101.724 137.067 100.891 135.189 100.891C132.437 100.87 130.667 102.685 130.667 105.418ZM168 92.2636V113.106H163.925V92.2636H168ZM56.7253 90L73.4507 119H40L56.7253 90ZM98.56 92.2636L86.016 114.024L73.472 92.2636H78.1867L86.0373 105.867L93.888 92.2636H98.56ZM125.227 97.7091V102.108C124.779 101.98 124.288 101.895 123.776 101.895C121.152 101.895 119.253 103.71 119.253 106.422V113.127H115.179V97.7091H119.253V101.873C119.253 99.567 121.92 97.7091 125.227 97.7091Z" fill="#F9F9FD"/>
</svg>
