<svg width="208" height="208" viewBox="0 0 208 208" fill="none" xmlns="http://www.w3.org/2000/svg">
<path d="M150.074 80.4516C148.968 76.333 145.71 73.0751 141.53 71.9686C133.969 70.0015 103.725 70.0015 103.725 70.0015C103.725 70.0015 74.0343 69.8786 66.4734 71.8456C62.2934 72.9521 58.2977 76.333 57.1913 80.4516C55.1627 87.9511 55.3471 103.503 55.3471 103.503C55.3471 103.503 55.1627 119.055 57.1913 126.555C58.2977 130.673 62.3548 134.054 66.4734 135.161C74.0343 137.189 103.725 137.005 103.725 137.005C103.725 137.005 133.415 137.128 140.976 135.161C145.156 134.054 149.029 130.673 150.135 126.555C152.164 119.117 152.164 103.503 152.164 103.503C152.164 103.503 152.103 87.9511 150.074 80.4516Z" fill="#FF0000"/>
<path d="M94.4429 118.379L118.601 103.503L94.4429 88.627V118.379Z" fill="white"/>
</svg>
